<svg xmlns="http://www.w3.org/2000/svg" width="24" height="27" viewBox="0 0 24 27" fill="none">
  <path d="M11.8119 27C12.7069 27 13.5653 26.6444 14.1982 26.0115C14.8311 25.3786 15.1867 24.5202 15.1867 23.6252H8.43704C8.43704 24.5202 8.7926 25.3786 9.4255 26.0115C10.0584 26.6444 10.9168 27 11.8119 27ZM13.4908 1.85594C13.5144 1.62131 13.4885 1.38435 13.4148 1.16034C13.3412 0.936334 13.2214 0.73025 13.0632 0.555382C12.905 0.380513 12.7119 0.240742 12.4964 0.145082C12.2808 0.0494233 12.0477 0 11.8119 0C11.576 0 11.3429 0.0494233 11.1273 0.145082C10.9118 0.240742 10.7187 0.380513 10.5605 0.555382C10.4023 0.73025 10.2825 0.936334 10.2089 1.16034C10.1352 1.38435 10.1093 1.62131 10.1329 1.85594C8.22564 2.24387 6.51107 3.27903 5.2795 4.78612C4.04794 6.29321 3.37506 8.17962 3.37482 10.1259C3.37482 11.9787 2.53111 20.2504 0 21.9378H23.6237C21.0926 20.2504 20.2489 11.9787 20.2489 10.1259C20.2489 6.0424 17.3466 2.63383 13.4908 1.85594Z" fill="white"/>
</svg>