<svg xmlns="http://www.w3.org/2000/svg" width="139" height="139" viewBox="0 0 139 139" fill="none">
  <g filter="url(#filter0_f_3013_496)">
    <rect x="41.1641" y="41" width="56.4597" height="56.4597" fill="black" fill-opacity="0.7"/>
  </g>
  <path fill-rule="evenodd" clip-rule="evenodd" d="M70.2516 44.7037L69.7665 44.4923L69.2792 44.6988L51.5428 52.2121L50.8812 52.4923L50.7995 53.2061C48.227 75.6754 62.0909 86.9602 67.4686 91.3374L67.4686 91.3374C68.0754 91.8313 68.5741 92.2372 68.9289 92.5614L69.8309 93.3852L70.6622 92.49C71.0509 92.0714 71.7109 91.5064 72.5547 90.7841L72.5547 90.784C78.0883 86.047 91.5274 74.5423 88.2205 53.158L88.1169 52.4879L87.4953 52.2171L70.2516 44.7037ZM69.0148 89.4148C63.6528 85.0241 51.1257 74.7662 53.1708 54.1977L69.7528 47.1734L85.8841 54.2021C88.5824 73.6101 76.7053 83.9062 71.0725 88.7892C70.562 89.2318 70.1027 89.63 69.7103 89.9864C69.4952 89.8081 69.2627 89.6177 69.0148 89.4148ZM70.0576 52.8541L81.5123 57.0419C82.1282 72.0685 76.216 78.1038 70.0576 84.1391V52.8541Z" fill="#DFD82A"/>
  <path d="M69.7665 44.4923L69.8157 44.3794L69.7671 44.3583L69.7184 44.3789L69.7665 44.4923ZM70.2516 44.7037L70.3008 44.5908V44.5908L70.2516 44.7037ZM69.2792 44.6988L69.3272 44.8122L69.3272 44.8122L69.2792 44.6988ZM51.5428 52.2121L51.4947 52.0987L51.5428 52.2121ZM50.8812 52.4923L50.8332 52.3789L50.767 52.4069L50.7589 52.4783L50.8812 52.4923ZM50.7995 53.2061L50.6771 53.1921L50.7995 53.2061ZM67.4686 91.3374L67.5561 91.2498L67.5463 91.2419L67.4686 91.3374ZM67.4686 91.3374L67.3811 91.425L67.3909 91.433L67.4686 91.3374ZM68.9289 92.5614L69.012 92.4704L68.9289 92.5614ZM69.8309 93.3852L69.7479 93.4762L69.8381 93.5585L69.9212 93.469L69.8309 93.3852ZM70.6622 92.49L70.5719 92.4062L70.6622 92.49ZM72.5547 90.7841L72.6348 90.8777L72.6365 90.8761L72.5547 90.7841ZM72.5547 90.784L72.4746 90.6905L72.4729 90.692L72.5547 90.784ZM88.2205 53.158L88.0988 53.1768L88.2205 53.158ZM88.1169 52.4879L88.2387 52.4691L88.2283 52.4021L88.1661 52.375L88.1169 52.4879ZM87.4953 52.2171L87.4461 52.33L87.4953 52.2171ZM53.1708 54.1977L53.1228 54.0843L53.0555 54.1128L53.0482 54.1856L53.1708 54.1977ZM69.0148 89.4148L69.0929 89.3195L69.0148 89.4148ZM69.7528 47.1734L69.802 47.0605L69.7534 47.0394L69.7047 47.06L69.7528 47.1734ZM85.8841 54.2021L86.0061 54.1852L85.9966 54.1168L85.9333 54.0892L85.8841 54.2021ZM71.0725 88.7892L70.9919 88.6962L71.0725 88.7892ZM69.7103 89.9864L69.6316 90.0812L69.7139 90.1494L69.7931 90.0776L69.7103 89.9864ZM81.5123 57.0419L81.6354 57.0368L81.632 56.9545L81.5546 56.9262L81.5123 57.0419ZM70.0576 52.8541L70.0998 52.7384L69.9344 52.6779V52.8541H70.0576ZM70.0576 84.1391H69.9344V84.4323L70.1438 84.2271L70.0576 84.1391ZM69.7173 44.6053L70.2024 44.8166L70.3008 44.5908L69.8157 44.3794L69.7173 44.6053ZM69.3272 44.8122L69.8145 44.6058L69.7184 44.3789L69.2311 44.5853L69.3272 44.8122ZM51.5908 52.3255L69.3272 44.8122L69.2311 44.5853L51.4947 52.0987L51.5908 52.3255ZM50.9293 52.6057L51.5908 52.3255L51.4947 52.0987L50.8332 52.3789L50.9293 52.6057ZM50.9219 53.2201L51.0036 52.5063L50.7589 52.4783L50.6771 53.1921L50.9219 53.2201ZM67.5463 91.2419C62.1735 86.8686 48.3571 75.6215 50.9219 53.2201L50.6771 53.1921C48.0968 75.7293 62.0084 87.0518 67.3908 91.4329L67.5463 91.2419ZM67.5557 91.2503L67.5557 91.2503L67.3815 91.4245L67.3815 91.4245L67.5557 91.2503ZM69.012 92.4704C68.6539 92.1433 68.152 91.7348 67.5464 91.2419L67.3909 91.433C67.9988 91.9277 68.4942 92.3311 68.8459 92.6523L69.012 92.4704ZM69.914 93.2943L69.012 92.4704L68.8459 92.6523L69.7479 93.4762L69.914 93.2943ZM70.5719 92.4062L69.7407 93.3014L69.9212 93.469L70.7524 92.5738L70.5719 92.4062ZM72.4746 90.6905C71.6336 91.4105 70.9667 91.9811 70.5719 92.4062L70.7524 92.5738C71.1351 92.1617 71.7882 91.6024 72.6348 90.8777L72.4746 90.6905ZM72.4729 90.692L72.4728 90.692L72.6365 90.8761L72.6365 90.8761L72.4729 90.692ZM88.0988 53.1768C91.3949 74.4911 78.0055 85.9557 72.4746 90.6905L72.6348 90.8776C78.1711 86.1383 91.66 74.5935 88.3423 53.1392L88.0988 53.1768ZM87.9952 52.5067L88.0988 53.1768L88.3423 53.1392L88.2387 52.4691L87.9952 52.5067ZM87.4461 52.33L88.0677 52.6008L88.1661 52.375L87.5445 52.1041L87.4461 52.33ZM70.2024 44.8166L87.4461 52.33L87.5445 52.1041L70.3008 44.5908L70.2024 44.8166ZM53.0482 54.1856C50.9965 74.8207 63.5702 85.1156 68.9368 89.51L69.0929 89.3195C63.7354 84.9325 51.2549 74.7116 53.2934 54.2099L53.0482 54.1856ZM69.7047 47.06L53.1228 54.0843L53.2188 54.3112L69.8008 47.2869L69.7047 47.06ZM85.9333 54.0892L69.802 47.0605L69.7036 47.2864L85.8349 54.315L85.9333 54.0892ZM71.1532 88.8823C76.7885 83.9971 88.7139 73.6617 86.0061 54.1852L85.7621 54.2191C88.4509 73.5585 76.6221 83.8154 70.9919 88.6962L71.1532 88.8823ZM69.7931 90.0776C70.1842 89.7223 70.6423 89.3252 71.1532 88.8823L70.9919 88.6962C70.4816 89.1385 70.0212 89.5376 69.6274 89.8952L69.7931 90.0776ZM68.9368 89.51C69.1847 89.713 69.4169 89.9032 69.6316 90.0812L69.7889 89.8916C69.5735 89.713 69.3406 89.5223 69.0929 89.3195L68.9368 89.51ZM81.5546 56.9262L70.0998 52.7384L70.0153 52.9698L81.47 57.1575L81.5546 56.9262ZM70.1438 84.2271C73.2223 81.2101 76.2534 78.1803 78.4344 74.0194C80.6168 69.8558 81.944 64.5682 81.6354 57.0368L81.3892 57.0469C81.6964 64.5422 80.3755 69.7856 78.2162 73.9051C76.0555 78.0274 73.0513 81.0328 69.9713 84.0512L70.1438 84.2271ZM69.9344 52.8541V84.1391H70.1807V52.8541H69.9344Z" fill="#DFD82A"/>
  <defs>
    <filter id="filter0_f_3013_496" x="0.419971" y="0.255909" width="137.949" height="137.948" filterUnits="userSpaceOnUse" color-interpolation-filters="sRGB">
      <feFlood flood-opacity="0" result="BackgroundImageFix"/>
      <feBlend mode="normal" in="SourceGraphic" in2="BackgroundImageFix" result="shape"/>
      <feGaussianBlur stdDeviation="20.372" result="effect1_foregroundBlur_3013_496"/>
    </filter>
  </defs>
</svg>