<svg width="49" height="69" viewBox="0 0 49 69" fill="none" xmlns="http://www.w3.org/2000/svg">
<path d="M18.4504 10.2995C18.3885 6.27168 20.6812 -1.11469 30.3479 1.56225C30.4098 5.28023 28.117 12.2328 18.4504 10.2995Z" fill="#098E43" stroke="#27823D" stroke-width="0.195807"/>
<g filter="url(#filter0_d_3143_2127)">
<path d="M24.4365 15.3057V9.91461C-2.33242 11.03 -2.33222 38.9148 18.6736 44.4917V37.2417C10.1228 33.5237 7.51973 28.6904 7.51973 26.4596C7.81717 17.3877 18.9215 15.2437 24.4365 15.3057Z" fill="#54AD45"/>
<path d="M24.4365 15.3057V9.91461C-2.33242 11.03 -2.33222 38.9148 18.6736 44.4917V37.2417C10.1228 33.5237 7.51973 28.6904 7.51973 26.4596C7.81717 17.3877 18.9215 15.2437 24.4365 15.3057Z" stroke="#4AA33B" stroke-width="0.391614"/>
</g>
<g filter="url(#filter1_d_3143_2127)">
<circle cx="29.2226" cy="14.0044" r="4.08977" fill="#0073B6"/>
<circle cx="29.2226" cy="14.0044" r="3.89396" stroke="#0269A5" stroke-width="0.391614"/>
</g>
<g filter="url(#filter2_d_3143_2127)">
<path d="M34.0625 18.28V12.703C51.7229 21.6261 50.4216 43.3763 26.6266 51.3699L15.4727 45.7929C23.2804 44.6776 38.8205 40.4019 41.4985 32.78C43.9151 25.9018 38.3382 20.5107 34.0625 18.28Z" fill="#0073B6"/>
<path d="M34.0625 18.28V12.703C51.7229 21.6261 50.4216 43.3763 26.6266 51.3699L15.4727 45.7929C23.2804 44.6776 38.8205 40.4019 41.4985 32.78C43.9151 25.9018 38.3382 20.5107 34.0625 18.28Z" stroke="#0073B6" stroke-width="0.391614"/>
</g>
<path d="M15.6562 4.52366C17.4409 5.86213 17.7631 9.17112 17.7011 10.6583L18.8165 10.2865C19.114 6.86598 17.5772 4.27579 16.7716 3.40826L15.6562 4.52366Z" fill="#59AC49" stroke="#4BA33C" stroke-width="0.391614"/>
<path d="M8.23255 65.338H7.9027C7.63588 65.338 7.39253 65.2457 7.17263 65.0609C6.99377 64.9114 6.87356 64.7443 6.81199 64.5596C6.39271 64.9202 5.8928 65.165 5.31227 65.294C4.93111 65.3791 4.44 65.4216 3.83893 65.4216C2.24392 65.4216 1.44642 64.8806 1.44642 63.7987C1.44642 63.5055 1.51678 63.2211 1.65752 62.9455C1.7836 62.6963 1.89208 62.5717 1.98297 62.5717C2.09439 62.5717 2.1501 62.6332 2.1501 62.7564C2.1501 62.8209 2.13104 62.9191 2.09292 63.051C2.05774 63.183 2.04015 63.2827 2.04015 63.3501C2.04015 63.7518 2.26591 64.0245 2.71744 64.1681C3.01357 64.262 3.4651 64.3089 4.07203 64.3089C5.20378 64.3089 6.05846 64.0948 6.63607 63.6668C6.72696 63.5993 6.85304 63.4777 7.0143 63.3017C7.14037 63.1639 7.23127 63.095 7.28697 63.095C7.38959 63.095 7.4409 63.1669 7.4409 63.3105C7.4409 63.375 7.36907 63.5612 7.2254 63.8691C7.31629 64.0948 7.56405 64.2077 7.96867 64.2077H8.23255V65.338ZM5.49698 61.8636L4.95603 62.4001L4.41947 61.8636L4.95603 61.327L5.49698 61.8636ZM4.29193 61.8636L3.75537 62.4001L3.21881 61.8636L3.75537 61.327L4.29193 61.8636ZM13.3981 63.658C13.3981 64.0655 13.316 64.4276 13.1518 64.7443C12.9466 65.1401 12.6504 65.338 12.2634 65.338C11.8998 65.338 11.5993 65.1372 11.3618 64.7355C11.1361 65.1372 10.8487 65.338 10.4998 65.338C10.1245 65.338 9.82251 65.1372 9.59382 64.7355C9.35926 65.1372 9.00302 65.338 8.5251 65.338H7.91378V64.2077H8.63505C8.896 64.2077 9.08218 64.1198 9.1936 63.9438C9.23758 63.8764 9.29036 63.7137 9.35193 63.4557C9.39591 63.2797 9.46774 63.1918 9.56743 63.1918C9.67591 63.1918 9.75068 63.2797 9.79173 63.4557C9.85623 63.7313 9.90315 63.8955 9.93247 63.9482C10.0292 64.1242 10.2051 64.2121 10.4602 64.2121C10.7124 64.2121 10.8912 64.1242 10.9968 63.9482C11.029 63.8955 11.0818 63.7313 11.1551 63.4557C11.202 63.2797 11.2812 63.1918 11.3926 63.1918C11.4894 63.1918 11.5568 63.2812 11.5949 63.4601C11.6506 63.7357 11.6961 63.9028 11.7313 63.9614C11.8339 64.1403 12.0171 64.2297 12.281 64.2297C12.6475 64.2297 12.8308 64.1066 12.8308 63.8603C12.8308 63.7371 12.7061 63.5187 12.4569 63.205L12.8571 62.5849C12.907 62.5057 12.9363 62.4646 12.9451 62.4617C12.9627 62.4705 12.992 62.5013 13.0331 62.5541C13.1064 62.6479 13.1797 62.7886 13.253 62.9763C13.3497 63.2196 13.3981 63.4469 13.3981 63.658ZM10.1612 61.5513L10.7021 61.0104L11.2387 61.5513L10.7021 62.0879L10.1612 61.5513ZM11.3618 61.5513L11.9028 61.0104L12.4393 61.5513L11.9028 62.0879L11.3618 61.5513ZM10.7505 60.6585L11.2915 60.122L11.828 60.6585L11.2915 61.1951L10.7505 60.6585ZM15.0628 64.3441C15.0628 64.5522 14.9514 64.8923 14.7286 65.3644C14.6699 65.4875 14.6289 65.5491 14.6054 65.5491C14.5673 65.5491 14.5365 65.4128 14.5131 65.1401L14.0953 60.4958L14.9045 59.8229C14.9573 59.7789 14.9954 59.7569 15.0189 59.7569C15.0482 59.7569 15.0628 59.7877 15.0628 59.8493V64.3441ZM20.114 65.338H19.6434C19.2242 65.338 18.8694 65.0683 18.5791 64.5288C18.3358 64.8337 18.1379 65.0301 17.9854 65.1181C17.7332 65.2647 17.3638 65.338 16.8771 65.338C16.1412 65.338 15.7732 64.9979 15.7732 64.3177C15.7732 64.2151 15.7849 64.1022 15.8084 63.979C15.8788 63.6067 15.9975 63.4205 16.1646 63.4205C16.2584 63.4205 16.3068 63.4938 16.3098 63.6404C16.3156 63.8368 16.3435 63.9717 16.3933 64.045C16.493 64.1887 16.71 64.2605 17.0442 64.2605C17.8593 64.2605 18.2669 64.1051 18.2669 63.7943C18.2669 63.5979 18.0616 63.0642 17.6511 62.1934L18.1481 61.5381C18.1862 61.4854 18.2097 61.459 18.2185 61.459C18.239 61.459 18.2639 61.4985 18.2933 61.5777L19.0585 63.6184C19.208 64.0201 19.4177 64.2209 19.6874 64.2209H20.114V65.338ZM24.1361 65.338H23.7403C23.4266 65.338 23.2155 65.3512 23.107 65.3776C22.8988 65.4274 22.7947 65.5359 22.7947 65.703C22.7947 65.9611 23.0425 66.1927 23.538 66.3979L23.1597 67.4359C22.4414 67.2277 21.8711 66.914 21.4489 66.4947C21.1997 66.2484 21.0252 66.0036 20.9256 65.7602C20.905 65.7016 20.8464 65.5389 20.7496 65.272C20.477 65.316 20.2424 65.338 20.046 65.338H19.7997V64.2077H20.6441C20.6441 63.4337 20.9593 62.6112 21.5897 61.7404C21.8096 62.0014 22.0075 62.3136 22.1834 62.6772C22.3916 63.1082 22.4956 63.482 22.4956 63.7987C22.4956 64.6197 22.1262 65.0873 21.3873 65.2017C21.5633 65.5301 21.8697 65.8101 22.3065 66.0417C22.2831 65.5814 22.3989 65.1694 22.654 64.8058C22.9325 64.4071 23.2932 64.2077 23.7359 64.2077H24.1361V65.338ZM21.9767 64.0714C21.9767 63.9306 21.9107 63.7386 21.7788 63.4952C21.6732 63.3017 21.5765 63.1537 21.4885 63.051C21.2598 63.3765 21.1455 63.7518 21.1455 64.1769C21.339 64.1769 21.616 64.1418 21.9767 64.0714ZM25.5458 63.6184C25.5458 64.0523 25.4622 64.4203 25.2951 64.7223C25.0664 65.1328 24.7145 65.338 24.2395 65.338H23.8173V64.2077H24.3055C24.7277 64.2077 24.9388 64.1286 24.9388 63.9702C24.9388 63.8324 24.7746 63.5832 24.4462 63.2226C24.4081 63.1815 24.4081 63.1346 24.4462 63.0818L24.9608 62.365C25.0048 62.3034 25.0488 62.2961 25.0928 62.343C25.2247 62.4837 25.3346 62.6831 25.4226 62.9411C25.5047 63.1815 25.5458 63.4073 25.5458 63.6184ZM25.3786 66.7058L24.7805 67.3039L24.1824 66.7058L24.7805 66.1077L25.3786 66.7058ZM34.8785 65.338H34.5487C34.2818 65.338 34.0385 65.2457 33.8186 65.0609C33.6397 64.9114 33.5195 64.7443 33.4579 64.5596C33.0387 64.9202 32.5388 65.165 31.9582 65.294C31.5771 65.3791 31.086 65.4216 30.4849 65.4216C28.8899 65.4216 28.0924 64.8806 28.0924 63.7987C28.0924 63.5055 28.1627 63.2211 28.3035 62.9455C28.4296 62.6963 28.538 62.5717 28.6289 62.5717C28.7403 62.5717 28.7961 62.6332 28.7961 62.7564C28.7961 62.8209 28.777 62.9191 28.7389 63.051C28.7037 63.183 28.6861 63.2827 28.6861 63.3501C28.6861 63.7518 28.9119 64.0245 29.3634 64.1681C29.6595 64.262 30.1111 64.3089 30.718 64.3089C31.8497 64.3089 32.7044 64.0948 33.282 63.6668C33.3729 63.5993 33.499 63.4777 33.6603 63.3017C33.7863 63.1639 33.8772 63.095 33.9329 63.095C34.0356 63.095 34.0869 63.1669 34.0869 63.3105C34.0869 63.375 34.015 63.5612 33.8714 63.8691C33.9623 64.0948 34.21 64.2077 34.6146 64.2077H34.8785V65.338ZM32.1429 61.8636L31.602 62.4001L31.0654 61.8636L31.602 61.327L32.1429 61.8636ZM30.9379 61.8636L30.4013 62.4001L29.8648 61.8636L30.4013 61.327L30.9379 61.8636ZM36.2882 63.6184C36.2882 64.0523 36.2046 64.4203 36.0375 64.7223C35.8088 65.1328 35.4569 65.338 34.9819 65.338H34.5597V64.2077H35.0479C35.4701 64.2077 35.6812 64.1286 35.6812 63.9702C35.6812 63.8324 35.517 63.5832 35.1887 63.2226C35.1505 63.1815 35.1505 63.1346 35.1887 63.0818L35.7032 62.365C35.7472 62.3034 35.7912 62.2961 35.8352 62.343C35.9671 62.4837 36.0771 62.6831 36.165 62.9411C36.2471 63.1815 36.2882 63.4073 36.2882 63.6184ZM36.2574 61.0148L35.6636 61.6129L35.0655 61.0148L35.6636 60.4166L36.2574 61.0148ZM39.6417 65.1753C39.6417 65.9405 39.3808 66.6032 38.8589 67.1632C38.6947 67.3391 38.5906 67.4271 38.5466 67.4271C37.8107 67.4271 37.2258 67.3523 36.7918 67.2028C36.7068 67.1734 36.7039 67.1441 36.783 67.1148C37.3049 66.9272 37.8136 66.6354 38.3091 66.2396C38.8516 65.8086 39.1228 65.4494 39.1228 65.1621C39.0583 65.1621 38.96 65.1636 38.8281 65.1665C38.6991 65.1694 38.6023 65.1709 38.5378 65.1709C38.1391 65.1709 37.8517 65.1254 37.6758 65.0345C37.4325 64.9085 37.3108 64.6783 37.3108 64.3441C37.3108 64.0333 37.409 63.6785 37.6055 63.2797C37.8429 62.7989 38.1244 62.5585 38.4499 62.5585C38.8545 62.5585 39.1667 62.793 39.3866 63.2621C39.5567 63.6257 39.6417 64.0347 39.6417 64.4892V65.1753ZM38.96 64.0626C38.8809 63.8661 38.7563 63.7137 38.5862 63.6052C38.4572 63.5231 38.3428 63.482 38.2432 63.482C38.1523 63.482 38.0687 63.5143 37.9925 63.5788C37.9162 63.6433 37.8781 63.7195 37.8781 63.8075C37.8781 64.0127 38.0423 64.1154 38.3707 64.1154C38.5232 64.1154 38.7196 64.0978 38.96 64.0626ZM42.2344 65.338H41.7155C41.4252 65.338 41.1775 65.2413 40.9722 65.0477C40.6995 64.7897 40.5632 64.3954 40.5632 63.8647C40.5632 63.504 40.5412 62.9602 40.4972 62.233C40.4474 61.4179 40.399 60.8814 40.3521 60.6233C40.3374 60.5383 40.3433 60.4826 40.3697 60.4562L41.0954 59.8669C41.1833 59.7965 41.2346 59.7613 41.2493 59.7613C41.2493 59.7613 41.2508 59.7628 41.2537 59.7657C41.2713 59.7687 41.2801 59.8097 41.2801 59.8889L41.2713 63.5876C41.2713 64.0039 41.5044 64.2121 41.9706 64.2121H42.2344V65.338ZM45.5176 65.338H45.2714C44.8521 65.338 44.512 65.2574 44.251 65.0961C44.1044 65.0052 43.93 64.8352 43.7277 64.5859C43.2791 65.0873 42.7601 65.338 42.1708 65.338H41.9157V64.2077H42.3555C42.7689 64.2077 43.0782 64.1286 43.2835 63.9702C42.9316 63.5099 42.6897 63.2797 42.5578 63.2797C42.4757 63.2797 42.4346 63.2328 42.4346 63.139C42.4346 63.01 42.505 62.8678 42.6457 62.7124C42.8803 62.4514 43.2424 62.321 43.7321 62.321C44.0311 62.321 44.2979 62.3811 44.5325 62.5013C44.8052 62.642 44.9415 62.8267 44.9415 63.0554C44.9415 63.2196 44.8433 63.4 44.6468 63.5964C44.5882 63.655 44.4313 63.787 44.1763 63.9922C44.3434 64.1359 44.6703 64.2077 45.157 64.2077H45.5176V65.338ZM48.4094 64.4144C48.4094 64.7164 48.3171 64.9627 48.1323 65.1533C47.9506 65.3409 47.7087 65.4348 47.4067 65.4348C47.005 65.4348 46.6693 65.2222 46.3995 64.7971C46.2119 65.1577 45.9363 65.338 45.5727 65.338H45.1945V64.2077H45.5727C45.8249 64.2077 45.9832 64.1857 46.0477 64.1418C46.1005 64.1066 46.121 64.0259 46.1093 63.8999C46.0858 63.6067 46.1752 63.3296 46.3775 63.0686C46.5974 62.7872 46.8731 62.6464 47.2044 62.6464C47.6148 62.6464 47.9286 62.8458 48.1455 63.2446C48.3215 63.57 48.4094 63.96 48.4094 64.4144ZM47.8729 64.1637C47.8729 63.9878 47.8113 63.7884 47.6881 63.5656C47.5474 63.3135 47.3979 63.1874 47.2396 63.1874C47.0402 63.1874 46.9405 63.3208 46.9405 63.5876C46.9405 63.7899 46.9933 64.001 47.0988 64.2209C47.2278 64.4877 47.3803 64.6211 47.5562 64.6211C47.7673 64.6211 47.8729 64.4687 47.8729 64.1637Z" fill="#0073B6"/>
<defs>
<filter id="filter0_d_3143_2127" x="2.20406" y="7.75238" width="24.3868" height="38.1688" filterUnits="userSpaceOnUse" color-interpolation-filters="sRGB">
<feFlood flood-opacity="0" result="BackgroundImageFix"/>
<feColorMatrix in="SourceAlpha" type="matrix" values="0 0 0 0 0 0 0 0 0 0 0 0 0 0 0 0 0 0 127 0" result="hardAlpha"/>
<feOffset dx="0.391614" dy="-0.391614"/>
<feGaussianBlur stdDeviation="0.783228"/>
<feComposite in2="hardAlpha" operator="out"/>
<feColorMatrix type="matrix" values="0 0 0 0 0 0 0 0 0 0 0 0 0 0 0 0 0 0 0.25 0"/>
<feBlend mode="normal" in2="BackgroundImageFix" result="effect1_dropShadow_3143_2127"/>
<feBlend mode="normal" in="SourceGraphic" in2="effect1_dropShadow_3143_2127" result="shape"/>
</filter>
<filter id="filter1_d_3143_2127" x="23.5664" y="8.73977" width="11.3126" height="11.3125" filterUnits="userSpaceOnUse" color-interpolation-filters="sRGB">
<feFlood flood-opacity="0" result="BackgroundImageFix"/>
<feColorMatrix in="SourceAlpha" type="matrix" values="0 0 0 0 0 0 0 0 0 0 0 0 0 0 0 0 0 0 127 0" result="hardAlpha"/>
<feOffset dy="0.391614"/>
<feGaussianBlur stdDeviation="0.783228"/>
<feComposite in2="hardAlpha" operator="out"/>
<feColorMatrix type="matrix" values="0 0 0 0 0 0 0 0 0 0 0 0 0 0 0 0 0 0 0.25 0"/>
<feBlend mode="normal" in2="BackgroundImageFix" result="effect1_dropShadow_3143_2127"/>
<feBlend mode="normal" in="SourceGraphic" in2="effect1_dropShadow_3143_2127" result="shape"/>
</filter>
<filter id="filter2_d_3143_2127" x="13.2578" y="11.6015" width="34.5665" height="42.3296" filterUnits="userSpaceOnUse" color-interpolation-filters="sRGB">
<feFlood flood-opacity="0" result="BackgroundImageFix"/>
<feColorMatrix in="SourceAlpha" type="matrix" values="0 0 0 0 0 0 0 0 0 0 0 0 0 0 0 0 0 0 127 0" result="hardAlpha"/>
<feOffset dy="0.783228"/>
<feGaussianBlur stdDeviation="0.783228"/>
<feComposite in2="hardAlpha" operator="out"/>
<feColorMatrix type="matrix" values="0 0 0 0 0 0 0 0 0 0 0 0 0 0 0 0 0 0 0.25 0"/>
<feBlend mode="normal" in2="BackgroundImageFix" result="effect1_dropShadow_3143_2127"/>
<feBlend mode="normal" in="SourceGraphic" in2="effect1_dropShadow_3143_2127" result="shape"/>
</filter>
</defs>
</svg>
