<svg xmlns="http://www.w3.org/2000/svg" width="139" height="139" viewBox="0 0 139 139" fill="none">
  <g filter="url(#filter0_f_3013_487)">
    <rect x="41.5234" y="41" width="56.4597" height="56.4597" fill="black" fill-opacity="0.7"/>
  </g>
  <path fill-rule="evenodd" clip-rule="evenodd" d="M66.752 44.4925C67.155 44.4925 67.4817 44.8192 67.4817 45.2223V53.3958C67.4817 53.7988 67.155 54.1255 66.752 54.1255C66.3489 54.1255 66.0222 53.7988 66.0222 53.3958V45.2223C66.0222 44.8192 66.3489 44.4925 66.752 44.4925ZM57.061 47.9239C56.7796 47.6354 56.3176 47.6295 56.029 47.9109C55.7404 48.1922 55.7346 48.6543 56.016 48.9429L61.7082 54.7811C61.9896 55.0696 62.4516 55.0755 62.7402 54.7941C63.0288 54.5128 63.0346 54.0507 62.7533 53.7622L57.061 47.9239ZM49.1004 63.2902C49.4031 61.9605 50.5648 58.956 55.5156 60.5474C59.4575 61.8145 61.1724 64.8197 64.223 70.1656L64.3743 70.4306C64.4697 70.5978 64.6989 70.6301 64.8351 70.494L84.4147 50.9145C86.7445 49.0216 90.9627 51.4867 88.6639 54.9764C88.6533 54.9925 88.6406 55.0081 88.627 55.0217L80.9721 62.6765C80.7713 62.8773 80.9538 63.2736 81.2359 63.3058C82.9146 63.4973 84.9701 64.8542 84.0079 68.0554C83.9408 68.2788 84.1381 68.5116 84.3709 68.4965C86.1536 68.3811 88.3315 69.6067 87.19 73.2485C87.1261 73.4523 87.2859 73.6646 87.4995 73.668C89.2187 73.6959 91.6505 74.6785 90.4228 78.5711C90.4077 78.6189 90.3795 78.6638 90.3426 78.6978L75.5433 92.3363C75.5222 92.3558 75.499 92.3718 75.473 92.3841C74.0498 93.0606 71.2591 93.8069 69.0894 91.7819L60.3837 82.5926C59.2111 81.3548 58.4706 79.7626 58.1679 78.0846C56.2257 67.3162 52.7493 65.8923 50.7095 65.0568C49.7493 64.6635 49.1074 64.4006 49.0938 63.3548C49.0935 63.3335 49.0956 63.311 49.1004 63.2902ZM77.3649 48.6313C77.6353 48.3324 77.6123 47.8709 77.3134 47.6005C77.0145 47.3301 76.553 47.3532 76.2826 47.6521L70.7363 53.7822C70.4659 54.0811 70.489 54.5425 70.7879 54.813C71.0867 55.0834 71.5482 55.0603 71.8186 54.7614L77.3649 48.6313Z" fill="#DFD82A"/>
  <defs>
    <filter id="filter0_f_3013_487" x="0.779346" y="0.255909" width="137.949" height="137.948" filterUnits="userSpaceOnUse" color-interpolation-filters="sRGB">
      <feFlood flood-opacity="0" result="BackgroundImageFix"/>
      <feBlend mode="normal" in="SourceGraphic" in2="BackgroundImageFix" result="shape"/>
      <feGaussianBlur stdDeviation="20.372" result="effect1_foregroundBlur_3013_487"/>
    </filter>
  </defs>
</svg>