<svg xmlns="http://www.w3.org/2000/svg" width="20" height="19" viewBox="0 0 20 19" fill="none">
  <path fill-rule="evenodd" clip-rule="evenodd" d="M1.49617 2.20841C2.47837 1.29637 3.83158 0.922363 5.32804 0.922363H14.5942C16.0907 0.922363 17.4439 1.29637 18.426 2.20841C19.4176 3.12912 19.9222 4.49637 19.9222 6.2504V12.7367C19.9222 14.4908 19.4176 15.858 18.426 16.7787C17.4439 17.6908 16.0907 18.0648 14.5942 18.0648H5.32804C3.83158 18.0648 2.47837 17.6908 1.49617 16.7787C0.504654 15.858 0 14.4908 0 12.7367V6.2504C0 4.49637 0.504654 3.12912 1.49617 2.20841Z" fill="#2E2E2E"/>
  <path fill-rule="evenodd" clip-rule="evenodd" d="M16.7833 5.148C17.018 5.45171 16.9621 5.88816 16.6584 6.12284L11.5184 10.0946C10.6006 10.8036 9.31997 10.8036 8.40225 10.0946L3.26226 6.12284C2.95854 5.88816 2.90258 5.45171 3.13727 5.148C3.37195 4.84428 3.8084 4.78833 4.11211 5.02301L9.25205 8.9947C9.66922 9.31707 10.2514 9.31707 10.6685 8.9947L15.8085 5.02301C16.1123 4.78833 16.5487 4.84428 16.7833 5.148Z" fill="#ECECEC"/>
</svg>