<svg width="67" height="69" viewBox="0 0 67 69" fill="none" xmlns="http://www.w3.org/2000/svg">
<path d="M29.0402 17.6081C35.9165 35.6348 49.8964 7.94026 64.0268 21.6365C60.0219 8.8466 53.1456 6.53032 47.5539 7.23527C47.433 3.20696 45.287 0.991394 43.3979 0.991394C38.5618 0.991394 37.8566 6.93314 37.8818 9.55153C26.6228 -1.82842 21.3333 17.6081 3.95312 13.5798C10.6789 25.4633 17.5544 25.4633 29.0402 17.6081Z" fill="white" stroke="#017380" stroke-width="1.65021"/>
<path d="M30.4805 15.6947C31.5887 16.0975 34.3795 16.3392 36.6767 14.0834C35.4677 13.9491 32.5358 14.0834 30.4805 15.6947Z" fill="#017380" stroke="#017380" stroke-width="0.165021"/>
<path d="M13.9922 40.8715V24.0533L29.1799 18.313L33.6381 24.0533L40.9684 23.0463V24.0533H42.1018V22.2406H43.5376H53.9653V29.7937H53.1341V35.1312H48.7514V40.8715H42.1018V39.3609L40.2128 40.8715H26.838V38.3538H25.0245V40.8715H13.9922Z" fill="#017988" stroke="#017988" stroke-width="0.165021"/>
<path d="M44.0273 39.0957V24.9995H51.6104L51.6283 27.7819H45.1349L46.8587 25.9399V32.067L45.1259 30.8745H51.1549V33.6666H45.7601L46.8587 32.6293V39.0957H44.0273Z" fill="white"/>
<path d="M37.5728 39.2896C36.5784 39.2896 35.6822 39.1216 34.8843 38.7855C34.0924 38.4429 33.4731 37.9162 33.0265 37.2052C32.5799 36.4943 32.3745 35.5862 32.4102 34.481H35.1791C35.191 34.9464 35.2803 35.3438 35.447 35.6735C35.6137 36.0031 35.8757 36.2552 36.233 36.4297C36.5903 36.5977 37.0547 36.6817 37.6264 36.6817C38.0908 36.6817 38.4719 36.63 38.7696 36.5266C39.0674 36.4232 39.2847 36.2713 39.4216 36.071C39.5646 35.8641 39.636 35.6121 39.636 35.3148C39.636 34.9851 39.5407 34.7137 39.3502 34.5004C39.1596 34.2807 38.8589 34.0771 38.4481 33.8896C38.0432 33.7022 37.5192 33.4889 36.8761 33.2498C36.0782 32.9395 35.3785 32.5905 34.7771 32.2027C34.1817 31.815 33.7202 31.3399 33.3927 30.7776C33.0652 30.2153 32.9015 29.5238 32.9015 28.7029C32.9015 27.4232 33.3093 26.4505 34.1251 25.7848C34.9468 25.1126 36.0603 24.7766 37.4656 24.7766C38.4243 24.7766 39.2251 24.9414 39.8682 25.271C40.5113 25.5941 41.0026 26.0789 41.342 26.7252C41.6873 27.3715 41.8898 28.173 41.9493 29.1295H39.2341C39.2222 28.7546 39.1477 28.4379 39.0108 28.1794C38.8798 27.9209 38.6863 27.7238 38.4302 27.588C38.1742 27.4523 37.8556 27.3844 37.4745 27.3844C36.8969 27.3844 36.4563 27.4879 36.1526 27.6947C35.8489 27.895 35.6971 28.215 35.6971 28.6545C35.6971 28.9841 35.7656 29.2652 35.9025 29.4979C36.0454 29.7241 36.2896 29.9374 36.6349 30.1378C36.9803 30.3381 37.4596 30.5611 38.073 30.8067C38.6446 31.0329 39.1924 31.2559 39.7164 31.4756C40.2463 31.6889 40.7197 31.9442 41.1365 32.2415C41.5534 32.5324 41.8809 32.9008 42.119 33.3467C42.3632 33.7927 42.4852 34.3614 42.4852 35.053C42.4912 36.462 42.0476 37.5219 41.1544 38.2329C40.2612 38.9374 39.0674 39.2896 37.5728 39.2896Z" fill="white"/>
<path d="M19.875 39.0957L23.7782 24.9995H28.1279L32.0311 39.0957H29.0211L27.8511 34.5392L29.423 35.8189H23.019L23.1797 33.3758H28.7978L27.8421 34.5004L26.6631 29.9148L26.0111 27.0354H25.8682L25.2251 29.9148L22.885 39.0957H19.875Z" fill="white"/>
<path d="M15.9531 39.096V23.9528H18.7398V39.096H15.9531Z" fill="white"/>
<path d="M1.08995 52.4194C1.24823 52.4194 1.3836 52.3964 1.49606 52.3506C1.61269 52.309 1.7085 52.2507 1.78347 52.1757C1.85845 52.1007 1.91676 52.0112 1.95841 51.907C2.00007 51.8071 2.02506 51.7008 2.03339 51.5884H1.60853C1.39193 51.5884 1.21491 51.5655 1.07745 51.5197C0.939997 51.4738 0.831699 51.4072 0.752558 51.3197C0.673418 51.2281 0.617186 51.1177 0.583864 50.9886C0.554707 50.8595 0.540128 50.7137 0.540128 50.5512C0.540128 50.3888 0.563037 50.2367 0.608856 50.0951C0.654674 49.9493 0.721319 49.8223 0.80879 49.714C0.900427 49.6057 1.01289 49.5203 1.14618 49.4578C1.27947 49.3912 1.43359 49.3579 1.60853 49.3579C1.75015 49.3579 1.88344 49.3808 2.0084 49.4266C2.13752 49.4724 2.24998 49.5453 2.34579 49.6453C2.44159 49.7452 2.51656 49.8744 2.57071 50.0326C2.62903 50.1909 2.65818 50.3846 2.65818 50.6137V50.9011H3.16427C3.2559 50.9011 3.30172 51.0115 3.30172 51.2322C3.30172 51.4697 3.2559 51.5884 3.16427 51.5884H2.64569C2.63736 51.7925 2.5957 51.9862 2.52073 52.1694C2.44575 52.3527 2.34162 52.5131 2.20833 52.6505C2.07921 52.788 1.92301 52.8963 1.73973 52.9754C1.55646 53.0587 1.35028 53.1004 1.12119 53.1004H0.490144L0.452657 52.4194H1.08995ZM1.15243 50.5075C1.15243 50.6533 1.18367 50.7553 1.24615 50.8136C1.31279 50.8719 1.44192 50.9011 1.63352 50.9011H2.04588V50.6075C2.04588 50.3909 2.00423 50.2388 1.92093 50.1514C1.84178 50.0639 1.72932 50.0201 1.58354 50.0201C1.44608 50.0201 1.33987 50.0618 1.26489 50.1451C1.18992 50.2284 1.15243 50.3492 1.15243 50.5075ZM3.2429 50.9011C3.52614 50.9011 3.66776 50.7657 3.66776 50.495V47.7146H4.30506V50.495C4.30506 50.6408 4.34879 50.7449 4.43626 50.8074C4.5279 50.8699 4.6362 50.9011 4.76116 50.9011H4.86112C4.95276 50.9011 4.99858 51.0115 4.99858 51.2322C4.99858 51.4697 4.95276 51.5884 4.86112 51.5884H4.73616C4.58205 51.5884 4.43835 51.5634 4.30506 51.5134C4.17177 51.4593 4.05722 51.353 3.96142 51.1948C3.86562 51.353 3.75524 51.4593 3.63028 51.5134C3.50948 51.5634 3.38036 51.5884 3.2429 51.5884H3.0992C3.04505 51.5884 3.00965 51.5613 2.99299 51.5072C2.97216 51.4488 2.96175 51.3655 2.96175 51.2572C2.96175 51.1364 2.97216 51.0469 2.99299 50.9886C3.00965 50.9303 3.04505 50.9011 3.0992 50.9011H3.2429ZM4.80006 51.5884C4.74591 51.5884 4.71051 51.5613 4.69384 51.5072C4.67302 51.4488 4.6626 51.3655 4.6626 51.2572C4.6626 51.1364 4.67302 51.0469 4.69384 50.9886C4.71051 50.9303 4.74591 50.9011 4.80006 50.9011H6.23709C6.51616 50.9011 6.6557 50.7657 6.6557 50.495V49.7577H7.29299V50.5387C7.29299 50.8844 7.20344 51.1469 7.02433 51.326C6.84939 51.5009 6.60363 51.5884 6.28707 51.5884H4.80006ZM6.0434 53.7752H5.38112V53.1629H6.0434V53.7752ZM6.48076 52.9004H5.83097V52.2881H6.48076V52.9004ZM5.5873 52.9004H4.93751V52.2881H5.5873V52.9004ZM8.74344 50.5012C8.74344 50.6345 8.7851 50.7345 8.8684 50.8011C8.95171 50.8678 9.05584 50.9011 9.1808 50.9011H9.24953C9.34117 50.9011 9.38698 51.0115 9.38698 51.2322C9.38698 51.4697 9.34117 51.5884 9.24953 51.5884H9.1808C9.09749 51.5884 9.01211 51.5759 8.92464 51.5509C8.84133 51.5217 8.77052 51.4655 8.7122 51.3822V51.4884C8.7122 51.7133 8.67472 51.9237 8.59974 52.1195C8.52477 52.3152 8.42063 52.486 8.28734 52.6318C8.15822 52.7776 8.00202 52.8921 7.81875 52.9754C7.63964 53.0587 7.44387 53.1004 7.23144 53.1004H7.07524L7.02526 52.4194H7.12522C7.30017 52.4194 7.45012 52.3923 7.57508 52.3381C7.70004 52.2881 7.8 52.2194 7.87498 52.132C7.95412 52.0445 8.01243 51.9445 8.04992 51.832C8.08741 51.7196 8.10615 51.605 8.10615 51.4884V49.7577H8.74344V50.5012ZM9.75283 50.9011C10.0319 50.9011 10.1714 50.7657 10.1714 50.495V49.7577H10.8087V50.5387C10.8087 50.8844 10.7213 51.1469 10.5463 51.326C10.3714 51.5009 10.1256 51.5884 9.80906 51.5884H9.17802C9.12387 51.5884 9.08846 51.5613 9.0718 51.5072C9.05098 51.4488 9.04056 51.3655 9.04056 51.2572C9.04056 51.1364 9.05098 51.0469 9.0718 50.9886C9.08846 50.9303 9.12387 50.9011 9.17802 50.9011H9.75283ZM10.8275 49.0267H10.1777V48.4144H10.8275V49.0267ZM9.93402 49.0267H9.28423V48.4144H9.93402V49.0267ZM11.4801 47.7146H12.1174V51.5884H11.4801V47.7146ZM13.3574 52.4194C13.5157 52.4194 13.6511 52.3964 13.7635 52.3506C13.8802 52.309 13.976 52.2507 14.0509 52.1757C14.1259 52.1007 14.1842 52.0112 14.2259 51.907C14.2675 51.8071 14.2925 51.7008 14.3009 51.5884H13.876C13.6594 51.5884 13.4824 51.5655 13.3449 51.5197C13.2075 51.4738 13.0992 51.4072 13.02 51.3197C12.9409 51.2281 12.8846 51.1177 12.8513 50.9886C12.8222 50.8595 12.8076 50.7137 12.8076 50.5512C12.8076 50.3888 12.8305 50.2367 12.8763 50.0951C12.9221 49.9493 12.9888 49.8223 13.0763 49.714C13.1679 49.6057 13.2804 49.5203 13.4136 49.4578C13.5469 49.3912 13.701 49.3579 13.876 49.3579C14.0176 49.3579 14.1509 49.3808 14.2759 49.4266C14.405 49.4724 14.5174 49.5453 14.6132 49.6453C14.7091 49.7452 14.784 49.8744 14.8382 50.0326C14.8965 50.1909 14.9256 50.3846 14.9256 50.6137V51.4884C14.9256 51.7008 14.8902 51.9049 14.8194 52.1007C14.7486 52.2965 14.6466 52.4673 14.5133 52.613C14.3842 52.763 14.2238 52.8817 14.0322 52.9692C13.8406 53.0566 13.6261 53.1004 13.3887 53.1004H12.7576L12.7201 52.4194H13.3574ZM13.4199 50.5075C13.4199 50.6533 13.4511 50.7553 13.5136 50.8136C13.5803 50.8719 13.7094 50.9011 13.901 50.9011H14.3133V50.6075C14.3133 50.3909 14.2717 50.2388 14.1884 50.1514C14.1092 50.0639 13.9968 50.0201 13.851 50.0201C13.7135 50.0201 13.6073 50.0618 13.5324 50.1451C13.4574 50.2284 13.4199 50.3492 13.4199 50.5075ZM16.8995 52.4194C17.0577 52.4194 17.1931 52.3964 17.3056 52.3506C17.4222 52.309 17.518 52.2507 17.593 52.1757C17.668 52.1007 17.7263 52.0112 17.7679 51.907C17.8096 51.8071 17.8346 51.7008 17.8429 51.5884H17.418C17.2014 51.5884 17.0244 51.5655 16.887 51.5197C16.7495 51.4738 16.6412 51.4072 16.5621 51.3197C16.4829 51.2281 16.4267 51.1177 16.3934 50.9886C16.3642 50.8595 16.3496 50.7137 16.3496 50.5512C16.3496 50.3888 16.3726 50.2367 16.4184 50.0951C16.4642 49.9493 16.5308 49.8223 16.6183 49.714C16.7099 49.6057 16.8224 49.5203 16.9557 49.4578C17.089 49.3912 17.2431 49.3579 17.418 49.3579C17.5597 49.3579 17.693 49.3808 17.8179 49.4266C17.947 49.4724 18.0595 49.5453 18.1553 49.6453C18.2511 49.7452 18.3261 49.8744 18.3802 50.0326C18.4385 50.1909 18.4677 50.3846 18.4677 50.6137V51.4884C18.4677 51.7008 18.4323 51.9049 18.3615 52.1007C18.2907 52.2965 18.1886 52.4673 18.0553 52.613C17.9262 52.763 17.7658 52.8817 17.5742 52.9692C17.3826 53.0566 17.1681 53.1004 16.9307 53.1004H16.2997L16.2622 52.4194H16.8995ZM16.9619 50.5075C16.9619 50.6533 16.9932 50.7553 17.0557 50.8136C17.1223 50.8719 17.2514 50.9011 17.443 50.9011H17.8554V50.6075C17.8554 50.3909 17.8137 50.2388 17.7304 50.1514C17.6513 50.0639 17.5388 50.0201 17.3931 50.0201C17.2556 50.0201 17.1494 50.0618 17.0744 50.1451C16.9994 50.2284 16.9619 50.3492 16.9619 50.5075ZM20.9101 50.7074C21.0726 50.7074 21.1954 50.6741 21.2787 50.6075C21.362 50.5366 21.4037 50.4429 21.4037 50.3263V49.7327H20.9663C20.7914 49.7327 20.6664 49.7848 20.5915 49.8889C20.5165 49.9889 20.479 50.1201 20.479 50.2826C20.479 50.4325 20.5123 50.5408 20.579 50.6075C20.6498 50.6741 20.7602 50.7074 20.9101 50.7074ZM22.0222 50.47C22.0222 50.6033 22.0493 50.7095 22.1035 50.7886C22.1618 50.8636 22.2534 50.9011 22.3784 50.9011H22.5221C22.5762 50.9011 22.6116 50.9303 22.6283 50.9886C22.6491 51.0427 22.6595 51.1239 22.6595 51.2322C22.6595 51.353 22.6491 51.4426 22.6283 51.5009C22.6116 51.5592 22.5762 51.5884 22.5221 51.5884H22.3784C22.1659 51.5884 21.9931 51.5509 21.8598 51.4759C21.7307 51.4009 21.6328 51.2739 21.5661 51.0948C21.462 51.2114 21.3371 51.2864 21.1913 51.3197C21.0496 51.3489 20.9122 51.3635 20.7789 51.3635C20.4832 51.3635 20.2562 51.2781 20.0979 51.1073C19.9438 50.9323 19.8667 50.6741 19.8667 50.3325C19.8667 50.1784 19.8875 50.0285 19.9292 49.8827C19.975 49.7327 20.0396 49.5994 20.1229 49.4828C20.2103 49.3662 20.3186 49.2725 20.4478 49.2017C20.5811 49.1309 20.7352 49.0954 20.9101 49.0954H21.4037V48.6768H22.0222V50.47ZM24.25 51.2385C24.1376 51.3051 24.0272 51.3614 23.9189 51.4072C23.8106 51.4488 23.696 51.4842 23.5753 51.5134C23.4545 51.5384 23.3212 51.5571 23.1754 51.5696C23.0338 51.5821 22.8692 51.5884 22.6818 51.5884H22.4569C22.4027 51.5884 22.3673 51.5613 22.3507 51.5072C22.3298 51.4488 22.3194 51.3655 22.3194 51.2572C22.3194 51.1364 22.3298 51.0469 22.3507 50.9886C22.3673 50.9303 22.4027 50.9011 22.4569 50.9011H22.7068C22.8609 50.9011 23.0004 50.899 23.1254 50.8949C23.2504 50.8865 23.3628 50.874 23.4628 50.8574C23.5669 50.8407 23.6648 50.8178 23.7564 50.7886C23.8481 50.7553 23.9397 50.7116 24.0314 50.6574L24.8248 50.2013C24.7957 50.1472 24.7665 50.0993 24.7374 50.0576C24.7124 50.016 24.6791 49.9827 24.6374 49.9577C24.5999 49.9285 24.552 49.9077 24.4937 49.8952C24.4354 49.8785 24.3604 49.8702 24.2688 49.8702H22.9442L22.9817 49.1829H24.3687C24.4854 49.1829 24.5999 49.1996 24.7124 49.2329C24.829 49.2662 24.9373 49.3308 25.0373 49.4266C25.1414 49.5182 25.2351 49.6494 25.3184 49.8202C25.4059 49.9868 25.4788 50.2076 25.5371 50.4825L24.25 51.2385ZM24.3437 52.9254H23.6377V52.2881H24.3437V52.9254ZM26.9 51.4884C26.9 51.7133 26.8625 51.9237 26.7875 52.1195C26.7126 52.3152 26.6084 52.486 26.4751 52.6318C26.346 52.7776 26.1898 52.8921 26.0065 52.9754C25.8274 53.0587 25.6317 53.1004 25.4192 53.1004H25.0256L24.9944 52.4194H25.2568C25.4442 52.4194 25.6046 52.3923 25.7379 52.3381C25.867 52.2881 25.9732 52.2194 26.0565 52.132C26.1398 52.0445 26.2002 51.9445 26.2377 51.832C26.2752 51.7196 26.2939 51.605 26.2939 51.4884V49.7577H26.9312V50.5012C26.9312 50.6345 26.9708 50.7345 27.0499 50.8011C27.1332 50.8678 27.2374 50.9011 27.3623 50.9011H27.4311C27.5227 50.9011 27.5685 51.0115 27.5685 51.2322C27.5685 51.4697 27.5227 51.5884 27.4311 51.5884H27.3623C27.279 51.5884 27.1957 51.5759 27.1124 51.5509C27.0291 51.5217 26.9583 51.4655 26.9 51.3822V51.4884ZM27.803 50.9011C28.0821 50.9011 28.2216 50.7657 28.2216 50.495V49.7577H28.8652V50.495C28.8652 50.6408 28.9089 50.7449 28.9964 50.8074C29.088 50.8699 29.1942 50.9011 29.315 50.9011H29.4775C29.5733 50.9011 29.6212 51.0115 29.6212 51.2322C29.6212 51.4697 29.5733 51.5884 29.4775 51.5884H29.2963C29.138 51.5884 28.9943 51.5634 28.8652 51.5134C28.736 51.4593 28.6236 51.353 28.5278 51.1948C28.4236 51.353 28.3112 51.4593 28.1904 51.5134C28.0696 51.5634 27.9405 51.5884 27.803 51.5884H27.3657C27.3115 51.5884 27.2761 51.5613 27.2594 51.5072C27.2386 51.4488 27.2282 51.3655 27.2282 51.2572C27.2282 51.1364 27.2386 51.0469 27.2594 50.9886C27.2761 50.9303 27.3115 50.9011 27.3657 50.9011H27.803ZM29.1901 52.9004H28.5465V52.2881H29.1901V52.9004ZM28.2904 52.9004H27.6468V52.2881H28.2904V52.9004ZM29.6892 50.9011C29.9766 50.9011 30.1203 50.7657 30.1203 50.495V49.7577H30.7514V50.495C30.7514 50.6408 30.7951 50.7449 30.8826 50.8074C30.9742 50.8699 31.0783 50.9011 31.195 50.9011C31.5074 50.9011 31.6636 50.7657 31.6636 50.495V49.7577H32.3009V50.495C32.3009 50.6408 32.3383 50.7449 32.4133 50.8074C32.4925 50.8699 32.5841 50.9011 32.6882 50.9011C32.8132 50.9011 32.909 50.8678 32.9756 50.8011C33.0464 50.7303 33.0819 50.6283 33.0819 50.495V49.7577H33.7191V50.5387C33.7191 50.8844 33.6296 51.1469 33.4505 51.326C33.2755 51.5009 33.0298 51.5884 32.7132 51.5884C32.5716 51.5884 32.4362 51.5634 32.3071 51.5134C32.178 51.4593 32.0655 51.353 31.9697 51.1948C31.8697 51.353 31.751 51.4593 31.6136 51.5134C31.4803 51.5634 31.3408 51.5884 31.195 51.5884C31.0367 51.5884 30.8909 51.5634 30.7576 51.5134C30.6285 51.4593 30.516 51.353 30.4202 51.1948C30.3203 51.353 30.2078 51.4593 30.0828 51.5134C29.9579 51.5634 29.8246 51.5884 29.683 51.5884H29.4143C29.3602 51.5884 29.3247 51.5613 29.3081 51.5072C29.2873 51.4488 29.2768 51.3655 29.2768 51.2572C29.2768 51.1364 29.2873 51.0469 29.3081 50.9886C29.3247 50.9303 29.3602 50.9011 29.4143 50.9011H29.6892ZM32.3071 48.152H31.6448V47.546H32.3071V48.152ZM32.7445 49.0267H32.0947V48.4144H32.7445V49.0267ZM31.851 49.0267H31.2012V48.4144H31.851V49.0267ZM34.7701 51.5884C34.6368 51.5884 34.5327 51.5509 34.4577 51.4759C34.3827 51.3968 34.3453 51.2697 34.3453 51.0948C34.3453 50.8657 34.3536 50.6783 34.3702 50.5325C34.3911 50.3825 34.4286 50.2659 34.4827 50.1826C34.541 50.0951 34.6222 50.0326 34.7264 49.9952C34.8347 49.9535 34.9763 49.9223 35.1512 49.9014V50.2763C35.0596 50.293 34.9867 50.3096 34.9326 50.3263C34.8826 50.343 34.8451 50.3659 34.8201 50.395C34.7951 50.4242 34.7784 50.4637 34.7701 50.5137C34.766 50.5637 34.7639 50.6283 34.7639 50.7074C34.9013 50.7074 35.0075 50.7407 35.0825 50.8074C35.1617 50.874 35.2012 50.9886 35.2012 51.151C35.2012 51.2968 35.1617 51.4072 35.0825 51.4822C35.0075 51.553 34.9034 51.5884 34.7701 51.5884ZM36.769 51.5884C36.6524 51.5884 36.5399 51.5738 36.4316 51.5446C36.3275 51.5113 36.2359 51.4572 36.1567 51.3822C36.0776 51.3072 36.0151 51.2093 35.9693 51.0885C35.9235 50.9636 35.9006 50.8095 35.9006 50.6262V47.7146H36.5378V50.47C36.5378 50.6033 36.567 50.7095 36.6253 50.7886C36.6878 50.8636 36.7794 50.9011 36.9002 50.9011H37.0439C37.1356 50.9011 37.1814 51.0115 37.1814 51.2322C37.1814 51.4697 37.1356 51.5884 37.0439 51.5884H36.769ZM37.4192 50.9011C37.6983 50.9011 37.8379 50.7657 37.8379 50.495V49.7577H38.4814V50.495C38.4814 50.6408 38.5251 50.7449 38.6126 50.8074C38.7042 50.8699 38.8105 50.9011 38.9313 50.9011H39.0937C39.1895 50.9011 39.2374 51.0115 39.2374 51.2322C39.2374 51.4697 39.1895 51.5884 39.0937 51.5884H38.9125C38.7542 51.5884 38.6105 51.5634 38.4814 51.5134C38.3523 51.4593 38.2398 51.353 38.144 51.1948C38.0399 51.353 37.9274 51.4593 37.8066 51.5134C37.6858 51.5634 37.5567 51.5884 37.4192 51.5884H36.9819C36.9277 51.5884 36.8923 51.5613 36.8757 51.5072C36.8548 51.4488 36.8444 51.3655 36.8444 51.2572C36.8444 51.1364 36.8548 51.0469 36.8757 50.9886C36.8923 50.9303 36.9277 50.9011 36.9819 50.9011H37.4192ZM38.4564 49.0267H37.7504V48.3894H38.4564V49.0267ZM39.3054 50.9011C39.5929 50.9011 39.7366 50.7657 39.7366 50.495V49.7577H40.3676V50.495C40.3676 50.6408 40.4113 50.7449 40.4988 50.8074C40.5904 50.8699 40.6946 50.9011 40.8112 50.9011C41.1236 50.9011 41.2798 50.7657 41.2798 50.495V49.7577H41.9171V50.495C41.9171 50.6408 41.9546 50.7449 42.0296 50.8074C42.1087 50.8699 42.2003 50.9011 42.3045 50.9011C42.4294 50.9011 42.5252 50.8678 42.5919 50.8011C42.6627 50.7303 42.6981 50.6283 42.6981 50.495V49.7577H43.3354V50.5387C43.3354 50.8844 43.2458 51.1469 43.0667 51.326C42.8918 51.5009 42.646 51.5884 42.3295 51.5884C42.1878 51.5884 42.0525 51.5634 41.9233 51.5134C41.7942 51.4593 41.6818 51.353 41.5859 51.1948C41.486 51.353 41.3673 51.4593 41.2298 51.5134C41.0965 51.5634 40.957 51.5884 40.8112 51.5884C40.6529 51.5884 40.5071 51.5634 40.3738 51.5134C40.2447 51.4593 40.1323 51.353 40.0365 51.1948C39.9365 51.353 39.824 51.4593 39.6991 51.5134C39.5741 51.5634 39.4408 51.5884 39.2992 51.5884H39.0305C38.9764 51.5884 38.941 51.5613 38.9243 51.5072C38.9035 51.4488 38.8931 51.3655 38.8931 51.2572C38.8931 51.1364 38.9035 51.0469 38.9243 50.9886C38.941 50.9303 38.9764 50.9011 39.0305 50.9011H39.3054ZM41.9233 48.152H41.2611V47.546H41.9233V48.152ZM42.3607 49.0267H41.7109V48.4144H42.3607V49.0267ZM41.4672 49.0267H40.8175V48.4144H41.4672V49.0267ZM48.1329 51.4322C48.1329 51.6696 48.0954 51.8883 48.0205 52.0882C47.9497 52.2923 47.8455 52.4693 47.7081 52.6193C47.5748 52.7692 47.4102 52.8859 47.2145 52.9692C47.0229 53.0566 46.8084 53.1004 46.5709 53.1004H46.1773C45.7108 53.1004 45.3484 52.9567 45.0902 52.6693C44.8319 52.3819 44.7028 51.9882 44.7028 51.4884V50.37H45.3338V51.4634C45.3338 51.6092 45.3505 51.7404 45.3838 51.857C45.4171 51.9737 45.4692 52.0736 45.54 52.1569C45.615 52.2402 45.7108 52.3048 45.8274 52.3506C45.9482 52.3964 46.094 52.4194 46.2648 52.4194H46.5397C46.7146 52.4194 46.8625 52.3923 46.9833 52.3381C47.1083 52.2881 47.2082 52.2173 47.2832 52.1257C47.3623 52.0382 47.4186 51.9341 47.4519 51.8133C47.4852 51.6967 47.5019 51.5717 47.5019 51.4384V49.7577H48.1329V51.4322ZM46.6647 49.664H45.9586V49.0267H46.6647V49.664ZM49.3039 52.4194C49.4622 52.4194 49.5975 52.3964 49.71 52.3506C49.8266 52.309 49.9224 52.2507 49.9974 52.1757C50.0724 52.1007 50.1307 52.0112 50.1723 51.907C50.214 51.8071 50.239 51.7008 50.2473 51.5884H49.8225C49.6059 51.5884 49.4288 51.5655 49.2914 51.5197C49.1539 51.4738 49.0456 51.4072 48.9665 51.3197C48.8873 51.2281 48.8311 51.1177 48.7978 50.9886C48.7686 50.8595 48.7541 50.7137 48.7541 50.5512C48.7541 50.3888 48.777 50.2367 48.8228 50.0951C48.8686 49.9493 48.9352 49.8223 49.0227 49.714C49.1144 49.6057 49.2268 49.5203 49.3601 49.4578C49.4934 49.3912 49.6475 49.3579 49.8225 49.3579C49.9641 49.3579 50.0974 49.3808 50.2223 49.4266C50.3514 49.4724 50.4639 49.5453 50.5597 49.6453C50.6555 49.7452 50.7305 49.8744 50.7846 50.0326C50.843 50.1909 50.8721 50.3846 50.8721 50.6137V50.9011H51.3782C51.4698 50.9011 51.5157 51.0115 51.5157 51.2322C51.5157 51.4697 51.4698 51.5884 51.3782 51.5884H50.8596C50.8513 51.7925 50.8096 51.9862 50.7347 52.1694C50.6597 52.3527 50.5555 52.5131 50.4223 52.6505C50.2931 52.788 50.1369 52.8963 49.9537 52.9754C49.7704 53.0587 49.5642 53.1004 49.3351 53.1004H48.7041L48.6666 52.4194H49.3039ZM49.3664 50.5075C49.3664 50.6533 49.3976 50.7553 49.4601 50.8136C49.5267 50.8719 49.6558 50.9011 49.8474 50.9011H50.2598V50.6075C50.2598 50.3909 50.2182 50.2388 50.1349 50.1514C50.0557 50.0639 49.9432 50.0201 49.7975 50.0201C49.66 50.0201 49.5538 50.0618 49.4788 50.1451C49.4038 50.2284 49.3664 50.3492 49.3664 50.5075ZM51.7505 50.9011C52.0296 50.9011 52.1691 50.7657 52.1691 50.495V49.7577H52.8126V50.495C52.8126 50.6408 52.8564 50.7449 52.9438 50.8074C53.0355 50.8699 53.1417 50.9011 53.2625 50.9011H53.4249C53.5207 50.9011 53.5686 51.0115 53.5686 51.2322C53.5686 51.4697 53.5207 51.5884 53.4249 51.5884H53.2437C53.0855 51.5884 52.9418 51.5634 52.8126 51.5134C52.6835 51.4593 52.5711 51.353 52.4752 51.1948C52.3711 51.353 52.2587 51.4593 52.1379 51.5134C52.0171 51.5634 51.8879 51.5884 51.7505 51.5884H51.3131C51.259 51.5884 51.2236 51.5613 51.2069 51.5072C51.1861 51.4488 51.1757 51.3655 51.1757 51.2572C51.1757 51.1364 51.1861 51.0469 51.2069 50.9886C51.2236 50.9303 51.259 50.9011 51.3131 50.9011H51.7505ZM53.1375 52.9004H52.494V52.2881H53.1375V52.9004ZM52.2378 52.9004H51.5943V52.2881H52.2378V52.9004ZM53.6367 50.9011C53.9241 50.9011 54.0678 50.7657 54.0678 50.495V49.7577H54.6988V50.495C54.6988 50.6408 54.7426 50.7449 54.83 50.8074C54.9217 50.8699 55.0258 50.9011 55.1424 50.9011C55.4548 50.9011 55.611 50.7657 55.611 50.495V49.7577H56.2483V50.495C56.2483 50.6408 56.2858 50.7449 56.3608 50.8074C56.4399 50.8699 56.5316 50.9011 56.6357 50.9011C56.7607 50.9011 56.8565 50.8678 56.9231 50.8011C56.9939 50.7303 57.0293 50.6283 57.0293 50.495V49.7577H57.6666V50.5387C57.6666 50.8844 57.5771 51.1469 57.398 51.326C57.223 51.5009 56.9773 51.5884 56.6607 51.5884C56.5191 51.5884 56.3837 51.5634 56.2546 51.5134C56.1255 51.4593 56.013 51.353 55.9172 51.1948C55.8172 51.353 55.6985 51.4593 55.5611 51.5134C55.4278 51.5634 55.2882 51.5884 55.1424 51.5884C54.9842 51.5884 54.8384 51.5634 54.7051 51.5134C54.576 51.4593 54.4635 51.353 54.3677 51.1948C54.2677 51.353 54.1553 51.4593 54.0303 51.5134C53.9053 51.5634 53.7721 51.5884 53.6304 51.5884H53.3618C53.3076 51.5884 53.2722 51.5613 53.2556 51.5072C53.2347 51.4488 53.2243 51.3655 53.2243 51.2572C53.2243 51.1364 53.2347 51.0469 53.2556 50.9886C53.2722 50.9303 53.3076 50.9011 53.3618 50.9011H53.6367ZM58.3302 47.7146H58.9675V51.5884H58.3302V47.7146ZM60.4949 51.4884C60.4949 51.7133 60.4554 51.9237 60.3762 52.1195C60.3012 52.3152 60.195 52.486 60.0576 52.6318C59.9243 52.7776 59.7639 52.8921 59.5765 52.9754C59.3932 53.0587 59.1954 53.1004 58.9829 53.1004H58.5893L58.5581 52.4194H58.8205C59.0079 52.4194 59.1683 52.3923 59.3016 52.3381C59.4307 52.2881 59.5369 52.2194 59.6202 52.132C59.7035 52.0445 59.7639 51.9445 59.8014 51.832C59.8389 51.7196 59.8576 51.605 59.8576 51.4884V49.7577H60.4949V51.4884ZM62.283 50.9011C62.4288 50.9011 62.5288 50.8719 62.5829 50.8136C62.6371 50.7553 62.6641 50.697 62.6641 50.6387C62.6641 50.6054 62.6579 50.5637 62.6454 50.5137C62.6329 50.4596 62.6079 50.3742 62.5704 50.2576C62.5329 50.1368 62.4767 49.9722 62.4017 49.764C62.3309 49.5557 62.233 49.2829 62.1081 48.9455L62.7141 48.6893L63.3577 50.4887C63.4076 50.6345 63.466 50.7407 63.5326 50.8074C63.6034 50.8699 63.7117 50.9011 63.8575 50.9011H63.9387C64.0304 50.9011 64.0762 51.0115 64.0762 51.2322C64.0762 51.4697 64.0304 51.5884 63.9387 51.5884H63.8575C63.72 51.5884 63.5868 51.5634 63.4576 51.5134C63.3327 51.4634 63.2181 51.3572 63.114 51.1948C63.0265 51.3447 62.9161 51.4488 62.7829 51.5072C62.6537 51.5613 62.5121 51.5884 62.358 51.5884H61.0147L60.9834 50.9011H62.283ZM64.4372 50.9011C64.5039 50.9011 64.5622 50.9032 64.6122 50.9074C64.6622 50.9074 64.708 50.9094 64.7496 50.9136C64.7955 50.9178 64.8392 50.924 64.8809 50.9323C64.9225 50.9407 64.9683 50.9511 65.0183 50.9636C64.8725 50.9011 64.7559 50.8365 64.6684 50.7699C64.5851 50.6991 64.5206 50.6241 64.4747 50.545C64.4289 50.4658 64.3977 50.3804 64.381 50.2888C64.3685 50.193 64.3623 50.0889 64.3623 49.9764C64.3623 49.8639 64.3831 49.7473 64.4248 49.6265C64.4706 49.5057 64.5372 49.3974 64.6247 49.3016C64.7122 49.2058 64.8205 49.1267 64.9496 49.0642C65.0829 49.0017 65.2349 48.9705 65.4057 48.9705C65.5681 48.9705 65.7139 48.9913 65.843 49.033C65.9763 49.0746 66.0909 49.1433 66.1867 49.2391C66.2825 49.335 66.3554 49.462 66.4054 49.6203C66.4595 49.7744 66.4866 49.966 66.4866 50.1951V50.5137C66.4866 50.8511 66.3887 51.1156 66.1929 51.3072C66.0013 51.4947 65.6973 51.5884 65.2807 51.5884H63.8749C63.8208 51.5884 63.7854 51.5613 63.7687 51.5072C63.7479 51.4488 63.7375 51.3655 63.7375 51.2572C63.7375 51.1364 63.7479 51.0469 63.7687 50.9886C63.7854 50.9303 63.8208 50.9011 63.8749 50.9011H64.4372ZM65.3807 49.6578C65.2349 49.6578 65.1266 49.7057 65.0558 49.8015C64.985 49.8931 64.9496 49.991 64.9496 50.0951C64.9496 50.1534 64.9558 50.2097 64.9683 50.2638C64.985 50.3138 65.0204 50.3659 65.0745 50.42C65.1287 50.4742 65.2099 50.5325 65.3182 50.595C65.4265 50.6574 65.5765 50.7282 65.7681 50.8074C65.8014 50.7657 65.8264 50.7095 65.843 50.6387C65.8639 50.5637 65.8743 50.4908 65.8743 50.42V50.2576C65.8743 50.0826 65.8389 49.9389 65.7681 49.8265C65.6973 49.714 65.5681 49.6578 65.3807 49.6578ZM65.7556 48.4519H65.0495V47.8146H65.7556V48.4519ZM3.84886 62.4322C3.84886 62.6696 3.81137 62.8883 3.73639 63.0882C3.66558 63.2923 3.56145 63.4693 3.42399 63.6193C3.29071 63.7692 3.12618 63.8859 2.93041 63.9692C2.7388 64.0566 2.52429 64.1004 2.28687 64.1004H1.89325C1.42673 64.1004 1.06435 63.9567 0.806103 63.6693C0.547854 63.3819 0.41873 62.9882 0.41873 62.4884V61.37H1.04977V62.4634C1.04977 62.6092 1.06643 62.7404 1.09976 62.857C1.13308 62.9737 1.18515 63.0736 1.25596 63.1569C1.33093 63.2402 1.42673 63.3048 1.54336 63.3506C1.66416 63.3964 1.80994 63.4194 1.98072 63.4194H2.25563C2.43057 63.4194 2.57844 63.3923 2.69923 63.3381C2.82419 63.2881 2.92416 63.2173 2.99913 63.1257C3.07827 63.0382 3.13451 62.9341 3.16783 62.8133C3.20115 62.6967 3.21781 62.5717 3.21781 62.4384V60.7577H3.84886V62.4322ZM2.38059 60.664H1.67457V60.0267H2.38059V60.664ZM4.51997 58.7146H5.15726V62.5884H4.51997V58.7146ZM6.65345 62.4884C6.65345 62.7133 6.61597 62.9237 6.54099 63.1195C6.46601 63.3152 6.36188 63.486 6.22859 63.6318C6.09947 63.7776 5.94327 63.8921 5.76 63.9754C5.58089 64.0587 5.38512 64.1004 5.17269 64.1004H4.77907L4.74783 63.4194H5.01024C5.19768 63.4194 5.35804 63.3923 5.49133 63.3381C5.62046 63.2881 5.72667 63.2194 5.80998 63.132C5.89329 63.0445 5.95368 62.9445 5.99117 62.832C6.02866 62.7196 6.0474 62.605 6.0474 62.4884V60.7577H6.68469V61.5012C6.68469 61.6345 6.72426 61.7345 6.8034 61.8011C6.88671 61.8678 6.99084 61.9011 7.1158 61.9011H7.18453C7.27617 61.9011 7.32198 62.0115 7.32198 62.2322C7.32198 62.4697 7.27617 62.5884 7.18453 62.5884H7.1158C7.0325 62.5884 6.94919 62.5759 6.86588 62.5509C6.78258 62.5217 6.71177 62.4655 6.65345 62.3822V62.4884ZM8.15003 61.9011C8.20418 61.9011 8.23959 61.9303 8.25625 61.9886C8.27707 62.0427 8.28749 62.1239 8.28749 62.2322C8.28749 62.353 8.27707 62.4426 8.25625 62.5009C8.23959 62.5592 8.20418 62.5884 8.15003 62.5884H7.11912C7.06497 62.5884 7.02957 62.5613 7.01291 62.5072C6.99208 62.4488 6.98167 62.3655 6.98167 62.2572C6.98167 62.1364 6.99208 62.0469 7.01291 61.9886C7.02957 61.9303 7.06497 61.9011 7.11912 61.9011H8.15003ZM9.11871 61.9011C9.17286 61.9011 9.20826 61.9303 9.22492 61.9886C9.24575 62.0427 9.25616 62.1239 9.25616 62.2322C9.25616 62.353 9.24575 62.4426 9.22492 62.5009C9.20826 62.5592 9.17286 62.5884 9.11871 62.5884H8.0878C8.03365 62.5884 7.99824 62.5613 7.98158 62.5072C7.96076 62.4488 7.95034 62.3655 7.95034 62.2572C7.95034 62.1364 7.96076 62.0469 7.98158 61.9886C7.99824 61.9303 8.03365 61.9011 8.0878 61.9011H9.11871ZM10.0874 61.9011C10.1415 61.9011 10.1769 61.9303 10.1936 61.9886C10.2144 62.0427 10.2248 62.1239 10.2248 62.2322C10.2248 62.353 10.2144 62.4426 10.1936 62.5009C10.1769 62.5592 10.1415 62.5884 10.0874 62.5884H9.05647C9.00232 62.5884 8.96692 62.5613 8.95026 62.5072C8.92943 62.4488 8.91902 62.3655 8.91902 62.2572C8.91902 62.1364 8.92943 62.0469 8.95026 61.9886C8.96692 61.9303 9.00232 61.9011 9.05647 61.9011H10.0874ZM11.0561 61.9011C11.1102 61.9011 11.1456 61.9303 11.1623 61.9886C11.1831 62.0427 11.1935 62.1239 11.1935 62.2322C11.1935 62.353 11.1831 62.4426 11.1623 62.5009C11.1456 62.5592 11.1102 62.5884 11.0561 62.5884H10.0252C9.971 62.5884 9.9356 62.5613 9.91894 62.5072C9.89811 62.4488 9.8877 62.3655 9.8877 62.2572C9.8877 62.1364 9.89811 62.0469 9.91894 61.9886C9.9356 61.9303 9.971 61.9011 10.0252 61.9011H11.0561ZM11.5686 61.9011C11.8477 61.9011 11.9873 61.7657 11.9873 61.495V60.7577H12.6245V61.5387C12.6245 61.8844 12.5371 62.1469 12.3621 62.326C12.1872 62.5009 11.9414 62.5884 11.6249 62.5884H10.9938C10.9397 62.5884 10.9043 62.5613 10.8876 62.5072C10.8668 62.4488 10.8564 62.3655 10.8564 62.2572C10.8564 62.1364 10.8668 62.0469 10.8876 61.9886C10.9043 61.9303 10.9397 61.9011 10.9938 61.9011H11.5686ZM12.5371 63.9004H11.8935V63.2881H12.5371V63.9004ZM11.6374 63.9004H10.9938V63.2881H11.6374V63.9004ZM13.2959 58.7146H13.9332V62.5884H13.2959V58.7146ZM18.2366 63.4194C18.4198 63.4194 18.5719 63.4069 18.6927 63.3819C18.8176 63.3569 18.9155 63.3215 18.9863 63.2757C19.0613 63.2298 19.1134 63.1736 19.1425 63.107C19.1758 63.0445 19.1925 62.9758 19.1925 62.9008C19.1925 62.8175 19.1696 62.7446 19.1238 62.6821C19.078 62.6196 19.0009 62.5884 18.8926 62.5884H17.9929L18.0304 61.9011H20.1984C20.2901 61.9011 20.3359 62.0115 20.3359 62.2322C20.3359 62.4697 20.2901 62.5884 20.1984 62.5884H19.6611C19.7153 62.63 19.7507 62.6842 19.7673 62.7508C19.7881 62.8175 19.7986 62.8987 19.7986 62.9945C19.7986 63.107 19.7736 63.2278 19.7236 63.3569C19.6736 63.486 19.5903 63.6047 19.4737 63.713C19.3612 63.8255 19.2092 63.9171 19.0176 63.9879C18.8301 64.0629 18.599 64.1004 18.324 64.1004H17.6618C17.1952 64.1004 16.8329 63.9567 16.5746 63.6693C16.3164 63.3819 16.1872 62.9882 16.1872 62.4884V61.37H16.8183V62.4634C16.8183 62.6092 16.8349 62.7404 16.8683 62.857C16.9016 62.9737 16.9537 63.0736 17.0245 63.1569C17.0994 63.2402 17.1952 63.3048 17.3119 63.3506C17.4327 63.3964 17.5785 63.4194 17.7492 63.4194H18.2366ZM21.1697 61.9011C21.2238 61.9011 21.2592 61.9303 21.2759 61.9886C21.2967 62.0427 21.3071 62.1239 21.3071 62.2322C21.3071 62.353 21.2967 62.4426 21.2759 62.5009C21.2592 62.5592 21.2238 62.5884 21.1697 62.5884H20.1388C20.0846 62.5884 20.0492 62.5613 20.0326 62.5072C20.0117 62.4488 20.0013 62.3655 20.0013 62.2572C20.0013 62.1364 20.0117 62.0469 20.0326 61.9886C20.0492 61.9303 20.0846 61.9011 20.1388 61.9011H21.1697ZM22.1384 61.9011C22.1925 61.9011 22.2279 61.9303 22.2446 61.9886C22.2654 62.0427 22.2758 62.1239 22.2758 62.2322C22.2758 62.353 22.2654 62.4426 22.2446 62.5009C22.2279 62.5592 22.1925 62.5884 22.1384 62.5884H21.1075C21.0533 62.5884 21.0179 62.5613 21.0012 62.5072C20.9804 62.4488 20.97 62.3655 20.97 62.2572C20.97 62.1364 20.9804 62.0469 21.0012 61.9886C21.0179 61.9303 21.0533 61.9011 21.1075 61.9011H22.1384ZM23.107 61.9011C23.1612 61.9011 23.1966 61.9303 23.2133 61.9886C23.2341 62.0427 23.2445 62.1239 23.2445 62.2322C23.2445 62.353 23.2341 62.4426 23.2133 62.5009C23.1966 62.5592 23.1612 62.5884 23.107 62.5884H22.0761C22.022 62.5884 21.9866 62.5613 21.9699 62.5072C21.9491 62.4488 21.9387 62.3655 21.9387 62.2572C21.9387 62.1364 21.9491 62.0469 21.9699 61.9886C21.9866 61.9303 22.022 61.9011 22.0761 61.9011H23.107ZM23.101 61.9011C23.2427 61.9011 23.353 61.874 23.4322 61.8199C23.5113 61.7616 23.5509 61.6678 23.5509 61.5387V61.4013C23.5509 61.2347 23.5738 61.0805 23.6196 60.9389C23.6696 60.7973 23.7404 60.6765 23.832 60.5765C23.9237 60.4766 24.0341 60.3995 24.1632 60.3454C24.2965 60.287 24.4443 60.2579 24.6068 60.2579C24.7776 60.2579 24.9275 60.287 25.0566 60.3454C25.1899 60.3995 25.3003 60.4787 25.3878 60.5828C25.4753 60.6828 25.5419 60.8035 25.5877 60.9452C25.6335 61.0868 25.6565 61.2409 25.6565 61.4075C25.6565 61.7824 25.5606 62.074 25.369 62.2822C25.1816 62.4863 24.9254 62.5884 24.6005 62.5884C24.4339 62.5884 24.2736 62.5571 24.1195 62.4947C23.9695 62.428 23.855 62.3239 23.7758 62.1823C23.6967 62.3447 23.5946 62.453 23.4697 62.5072C23.3447 62.5613 23.2218 62.5884 23.101 62.5884H23.0448C22.9907 62.5884 22.9553 62.5613 22.9386 62.5072C22.9178 62.4488 22.9074 62.3655 22.9074 62.2572C22.9074 62.1364 22.9178 62.0469 22.9386 61.9886C22.9553 61.9303 22.9907 61.9011 23.0448 61.9011H23.101ZM25.0442 61.4513C25.0442 61.3096 25.0108 61.1909 24.9442 61.0951C24.8817 60.9993 24.7672 60.9514 24.6005 60.9514C24.4423 60.9514 24.3277 60.9993 24.2569 61.0951C24.1903 61.1868 24.1569 61.3075 24.1569 61.4575C24.1569 61.6033 24.1965 61.7137 24.2757 61.7886C24.3548 61.8636 24.4631 61.9011 24.6005 61.9011C24.8963 61.9011 25.0442 61.7512 25.0442 61.4513ZM26.3231 62.5884V58.7146H26.9604V61.9011H27.5165C27.7956 61.9011 27.9351 61.7657 27.9351 61.495V58.7146H28.5724V61.495C28.5724 61.6408 28.6182 61.7449 28.7098 61.8074C28.8015 61.8699 28.9119 61.9011 29.041 61.9011H29.1285C29.2201 61.9011 29.2659 62.0115 29.2659 62.2322C29.2659 62.4697 29.2201 62.5884 29.1285 62.5884H29.0097C28.8556 62.5884 28.7119 62.5634 28.5786 62.5134C28.4495 62.4593 28.337 62.353 28.2412 62.1948C28.1371 62.353 28.0247 62.4593 27.9039 62.5134C27.7831 62.5634 27.6539 62.5884 27.5165 62.5884H26.3231ZM30.095 61.9011C30.1491 61.9011 30.1845 61.9303 30.2012 61.9886C30.222 62.0427 30.2324 62.1239 30.2324 62.2322C30.2324 62.353 30.222 62.4426 30.2012 62.5009C30.1845 62.5592 30.1491 62.5884 30.095 62.5884H29.0641C29.0099 62.5884 28.9745 62.5613 28.9579 62.5072C28.937 62.4488 28.9266 62.3655 28.9266 62.2572C28.9266 62.1364 28.937 62.0469 28.9579 61.9886C28.9745 61.9303 29.0099 61.9011 29.0641 61.9011H30.095ZM31.0637 61.9011C31.1178 61.9011 31.1532 61.9303 31.1699 61.9886C31.1907 62.0427 31.2011 62.1239 31.2011 62.2322C31.2011 62.353 31.1907 62.4426 31.1699 62.5009C31.1532 62.5592 31.1178 62.5884 31.0637 62.5884H30.0328C29.9786 62.5884 29.9432 62.5613 29.9265 62.5072C29.9057 62.4488 29.8953 62.3655 29.8953 62.2572C29.8953 62.1364 29.9057 62.0469 29.9265 61.9886C29.9432 61.9303 29.9786 61.9011 30.0328 61.9011H31.0637ZM32.0323 61.9011C32.0865 61.9011 32.1219 61.9303 32.1386 61.9886C32.1594 62.0427 32.1698 62.1239 32.1698 62.2322C32.1698 62.353 32.1594 62.4426 32.1386 62.5009C32.1219 62.5592 32.0865 62.5884 32.0323 62.5884H31.0014C30.9473 62.5884 30.9119 62.5613 30.8952 62.5072C30.8744 62.4488 30.864 62.3655 30.864 62.2572C30.864 62.1364 30.8744 62.0469 30.8952 61.9886C30.9119 61.9303 30.9473 61.9011 31.0014 61.9011H32.0323ZM33.001 61.9011C33.0552 61.9011 33.0906 61.9303 33.1072 61.9886C33.1281 62.0427 33.1385 62.1239 33.1385 62.2322C33.1385 62.353 33.1281 62.4426 33.1072 62.5009C33.0906 62.5592 33.0552 62.5884 33.001 62.5884H31.9701C31.916 62.5884 31.8806 62.5613 31.8639 62.5072C31.8431 62.4488 31.8326 62.3655 31.8326 62.2572C31.8326 62.1364 31.8431 62.0469 31.8639 61.9886C31.8806 61.9303 31.916 61.9011 31.9701 61.9011H33.001ZM33.2137 61.9011C33.5011 61.9011 33.6448 61.7657 33.6448 61.495V60.7577H34.2758V61.495C34.2758 61.6408 34.3196 61.7449 34.4071 61.8074C34.4987 61.8699 34.6028 61.9011 34.7194 61.9011C35.0318 61.9011 35.188 61.7657 35.188 61.495V60.7577H35.8253V61.495C35.8253 61.6408 35.8628 61.7449 35.9378 61.8074C36.0169 61.8699 36.1086 61.9011 36.2127 61.9011C36.3377 61.9011 36.4335 61.8678 36.5001 61.8011C36.5709 61.7303 36.6063 61.6283 36.6063 61.495V60.7577H37.2436V61.5387C37.2436 61.8844 37.1541 62.1469 36.975 62.326C36.8 62.5009 36.5543 62.5884 36.2377 62.5884C36.0961 62.5884 35.9607 62.5634 35.8316 62.5134C35.7025 62.4593 35.59 62.353 35.4942 62.1948C35.3942 62.353 35.2755 62.4593 35.1381 62.5134C35.0048 62.5634 34.8652 62.5884 34.7194 62.5884C34.5612 62.5884 34.4154 62.5634 34.2821 62.5134C34.153 62.4593 34.0405 62.353 33.9447 62.1948C33.8447 62.353 33.7323 62.4593 33.6073 62.5134C33.4824 62.5634 33.3491 62.5884 33.2074 62.5884H32.9388C32.8846 62.5884 32.8492 62.5613 32.8326 62.5072C32.8117 62.4488 32.8013 62.3655 32.8013 62.2572C32.8013 62.1364 32.8117 62.0469 32.8326 61.9886C32.8492 61.9303 32.8846 61.9011 32.9388 61.9011H33.2137ZM37.9072 58.7146H38.5445V62.5884H37.9072V58.7146ZM41.9191 63.4194C42.2565 63.4194 42.5189 63.361 42.7064 63.2444C42.898 63.1278 42.9938 62.9758 42.9938 62.7883C42.9938 62.7008 42.9709 62.6321 42.9251 62.5821C42.8792 62.528 42.798 62.5009 42.6814 62.5009H41.6067V61.3075C41.6067 61.1451 41.6317 60.9972 41.6817 60.8639C41.7317 60.7265 41.8025 60.6099 41.8941 60.5141C41.9899 60.4141 42.1045 60.337 42.2378 60.2829C42.3711 60.2287 42.521 60.2017 42.6876 60.2017H43.4061L43.4374 60.8889H42.6751C42.5543 60.8889 42.4523 60.9264 42.369 61.0014C42.2857 61.0722 42.244 61.1805 42.244 61.3263V61.8199H42.7939C42.9563 61.8199 43.0896 61.8407 43.1937 61.8824C43.302 61.924 43.3874 61.9823 43.4499 62.0573C43.5124 62.1323 43.5561 62.2218 43.5811 62.326C43.6102 62.4301 43.6248 62.5467 43.6248 62.6759C43.6248 62.8758 43.5832 63.0632 43.4999 63.2382C43.4207 63.4131 43.3083 63.5631 43.1625 63.688C43.0167 63.8171 42.8438 63.9171 42.6439 63.9879C42.4481 64.0629 42.2357 64.1004 42.0066 64.1004H41.463C40.9965 64.1004 40.6341 63.9567 40.3759 63.6693C40.1176 63.3819 39.9885 62.9882 39.9885 62.4884V61.37H40.6196V62.4634C40.6196 62.6092 40.6362 62.7404 40.6695 62.857C40.7029 62.9737 40.7549 63.0736 40.8257 63.1569C40.9007 63.2402 40.9965 63.3048 41.1132 63.3506C41.2339 63.3964 41.3797 63.4194 41.5505 63.4194H41.9191ZM43.6285 63.4194H43.7285C43.9034 63.4194 44.0534 63.3923 44.1783 63.3381C44.3033 63.2881 44.4032 63.2194 44.4782 63.132C44.5574 63.0445 44.6157 62.9445 44.6532 62.832C44.6906 62.7196 44.7094 62.605 44.7094 62.4884V60.7577H45.3467V62.4884C45.3467 62.7133 45.3071 62.9237 45.228 63.1195C45.153 63.3152 45.0468 63.486 44.9093 63.6318C44.776 63.7776 44.6157 63.8921 44.4282 63.9754C44.245 64.0587 44.0471 64.1004 43.8347 64.1004H43.6785L43.6285 63.4194ZM46.5101 63.4194C46.6684 63.4194 46.8038 63.3964 46.9162 63.3506C47.0329 63.309 47.1287 63.2507 47.2036 63.1757C47.2786 63.1007 47.3369 63.0112 47.3786 62.907C47.4202 62.8071 47.4452 62.7008 47.4536 62.5884H47.0287C46.8121 62.5884 46.6351 62.5655 46.4976 62.5197C46.3602 62.4738 46.2519 62.4072 46.1727 62.3197C46.0936 62.2281 46.0374 62.1177 46.004 61.9886C45.9749 61.8595 45.9603 61.7137 45.9603 61.5512C45.9603 61.3888 45.9832 61.2367 46.029 61.0951C46.0748 60.9493 46.1415 60.8223 46.229 60.714C46.3206 60.6057 46.4331 60.5203 46.5663 60.4578C46.6996 60.3912 46.8538 60.3579 47.0287 60.3579C47.1703 60.3579 47.3036 60.3808 47.4286 60.4266C47.5577 60.4724 47.6702 60.5453 47.766 60.6453C47.8618 60.7452 47.9367 60.8744 47.9909 61.0326C48.0492 61.1909 48.0783 61.3846 48.0783 61.6137V61.9011H48.5844C48.6761 61.9011 48.7219 62.0115 48.7219 62.2322C48.7219 62.4697 48.6761 62.5884 48.5844 62.5884H48.0659C48.0575 62.7925 48.0159 62.9862 47.9409 63.1694C47.8659 63.3527 47.7618 63.5131 47.6285 63.6505C47.4994 63.788 47.3432 63.8963 47.1599 63.9754C46.9766 64.0587 46.7704 64.1004 46.5414 64.1004H45.9103L45.8728 63.4194H46.5101ZM46.5726 61.5075C46.5726 61.6533 46.6038 61.7553 46.6663 61.8136C46.733 61.8719 46.8621 61.9011 47.0537 61.9011H47.4661V61.6075C47.4661 61.3909 47.4244 61.2388 47.3411 61.1514C47.262 61.0639 47.1495 61.0201 47.0037 61.0201C46.8662 61.0201 46.76 61.0618 46.6851 61.1451C46.6101 61.2284 46.5726 61.3492 46.5726 61.5075ZM49.5503 61.9011C49.6044 61.9011 49.6398 61.9303 49.6565 61.9886C49.6773 62.0427 49.6877 62.1239 49.6877 62.2322C49.6877 62.353 49.6773 62.4426 49.6565 62.5009C49.6398 62.5592 49.6044 62.5884 49.5503 62.5884H48.5194C48.4652 62.5884 48.4298 62.5613 48.4132 62.5072C48.3923 62.4488 48.3819 62.3655 48.3819 62.2572C48.3819 62.1364 48.3923 62.0469 48.4132 61.9886C48.4298 61.9303 48.4652 61.9011 48.5194 61.9011H49.5503ZM50.519 61.9011C50.5731 61.9011 50.6085 61.9303 50.6252 61.9886C50.646 62.0427 50.6564 62.1239 50.6564 62.2322C50.6564 62.353 50.646 62.4426 50.6252 62.5009C50.6085 62.5592 50.5731 62.5884 50.519 62.5884H49.488C49.4339 62.5884 49.3985 62.5613 49.3818 62.5072C49.361 62.4488 49.3506 62.3655 49.3506 62.2572C49.3506 62.1364 49.361 62.0469 49.3818 61.9886C49.3985 61.9303 49.4339 61.9011 49.488 61.9011H50.519ZM51.4876 61.9011C51.5418 61.9011 51.5772 61.9303 51.5938 61.9886C51.6147 62.0427 51.6251 62.1239 51.6251 62.2322C51.6251 62.353 51.6147 62.4426 51.5938 62.5009C51.5772 62.5592 51.5418 62.5884 51.4876 62.5884H50.4567C50.4026 62.5884 50.3672 62.5613 50.3505 62.5072C50.3297 62.4488 50.3193 62.3655 50.3193 62.2572C50.3193 62.1364 50.3297 62.0469 50.3505 61.9886C50.3672 61.9303 50.4026 61.9011 50.4567 61.9011H51.4876ZM51.9315 61.9011V61.4762C51.9315 61.3263 51.9461 61.1743 51.9752 61.0201C52.0085 60.866 52.0648 60.7286 52.1439 60.6078C52.2231 60.4828 52.3293 60.3808 52.4626 60.3016C52.6 60.2225 52.7729 60.1829 52.9811 60.1829C53.1353 60.1829 53.2706 60.21 53.3873 60.2641C53.508 60.3141 53.608 60.3829 53.6872 60.4703C53.7663 60.5578 53.8267 60.6619 53.8683 60.7827C53.91 60.9035 53.9308 61.0326 53.9308 61.1701C53.9308 61.37 53.8913 61.5512 53.8121 61.7137C53.7371 61.8761 53.633 62.0177 53.4997 62.1385C53.3706 62.2593 53.2206 62.3572 53.0499 62.4322C52.8791 62.503 52.7 62.5467 52.5125 62.5634V62.9758C52.5125 63.1215 52.5396 63.2257 52.5938 63.2881C52.6521 63.3548 52.7312 63.3985 52.8312 63.4194L53.3623 62.7508C53.5289 62.5467 53.6663 62.3884 53.7746 62.276C53.8871 62.1635 53.9891 62.0802 54.0808 62.0261C54.1766 61.9677 54.2724 61.9323 54.3682 61.9198C54.464 61.9074 54.5806 61.9011 54.7181 61.9011C54.7722 61.9011 54.8076 61.9303 54.8243 61.9886C54.8451 62.0427 54.8555 62.1239 54.8555 62.2322C54.8555 62.353 54.8451 62.4426 54.8243 62.5009C54.8076 62.5592 54.7722 62.5884 54.7181 62.5884C54.6139 62.5884 54.5223 62.5925 54.4432 62.6009C54.364 62.6092 54.2828 62.6363 54.1995 62.6821C54.1203 62.7279 54.0329 62.7987 53.9371 62.8945C53.8413 62.9945 53.7246 63.134 53.5872 63.3131L52.9874 64.1004C52.8374 64.1004 52.6979 64.0775 52.5688 64.0317C52.4396 63.99 52.3272 63.9254 52.2314 63.838C52.1397 63.7505 52.0669 63.638 52.0127 63.5006C51.9586 63.3673 51.9315 63.209 51.9315 63.0257V62.5884H51.4254C51.3712 62.5884 51.3358 62.5613 51.3192 62.5072C51.2984 62.4488 51.2879 62.3655 51.2879 62.2572C51.2879 62.1364 51.2984 62.0469 51.3192 61.9886C51.3358 61.9303 51.3712 61.9011 51.4254 61.9011H51.9315ZM52.5125 61.9261C52.6625 61.9136 52.7895 61.8865 52.8937 61.8449C52.9978 61.8032 53.0832 61.7532 53.1498 61.6949C53.2206 61.6366 53.2706 61.572 53.2998 61.5012C53.3331 61.4304 53.3498 61.3575 53.3498 61.2826C53.3498 61.1576 53.3164 61.0535 53.2498 60.9702C53.1832 60.8869 53.0853 60.8452 52.9561 60.8452C52.8145 60.8452 52.7041 60.8952 52.625 60.9952C52.55 61.0951 52.5125 61.2451 52.5125 61.445V61.9261ZM55.6886 61.9011C55.7428 61.9011 55.7782 61.9303 55.7949 61.9886C55.8157 62.0427 55.8261 62.1239 55.8261 62.2322C55.8261 62.353 55.8157 62.4426 55.7949 62.5009C55.7782 62.5592 55.7428 62.5884 55.6886 62.5884H54.6577C54.6036 62.5884 54.5682 62.5613 54.5515 62.5072C54.5307 62.4488 54.5203 62.3655 54.5203 62.2572C54.5203 62.1364 54.5307 62.0469 54.5515 61.9886C54.5682 61.9303 54.6036 61.9011 54.6577 61.9011H55.6886ZM56.6573 61.9011C56.7115 61.9011 56.7469 61.9303 56.7635 61.9886C56.7844 62.0427 56.7948 62.1239 56.7948 62.2322C56.7948 62.353 56.7844 62.4426 56.7635 62.5009C56.7469 62.5592 56.7115 62.5884 56.6573 62.5884H55.6264C55.5723 62.5884 55.5369 62.5613 55.5202 62.5072C55.4994 62.4488 55.489 62.3655 55.489 62.2572C55.489 62.1364 55.4994 62.0469 55.5202 61.9886C55.5369 61.9303 55.5723 61.9011 55.6264 61.9011H56.6573ZM57.626 61.9011C57.6801 61.9011 57.7156 61.9303 57.7322 61.9886C57.753 62.0427 57.7635 62.1239 57.7635 62.2322C57.7635 62.353 57.753 62.4426 57.7322 62.5009C57.7156 62.5592 57.6801 62.5884 57.626 62.5884H56.5951C56.5409 62.5884 56.5055 62.5613 56.4889 62.5072C56.468 62.4488 56.4576 62.3655 56.4576 62.2572C56.4576 62.1364 56.468 62.0469 56.4889 61.9886C56.5055 61.9303 56.5409 61.9011 56.5951 61.9011H57.626ZM57.62 61.9011C57.7616 61.9011 57.872 61.874 57.9511 61.8199C58.0303 61.7616 58.0698 61.6678 58.0698 61.5387V61.4013C58.0698 61.2347 58.0928 61.0805 58.1386 60.9389C58.1886 60.7973 58.2594 60.6765 58.351 60.5765C58.4426 60.4766 58.553 60.3995 58.6821 60.3454C58.8154 60.287 58.9633 60.2579 59.1258 60.2579C59.2965 60.2579 59.4465 60.287 59.5756 60.3454C59.7089 60.3995 59.8193 60.4787 59.9067 60.5828C59.9942 60.6828 60.0609 60.8015 60.1067 60.9389C60.1525 61.0764 60.1754 61.2263 60.1754 61.3888V61.5075C60.1754 61.6574 60.2191 61.7616 60.3066 61.8199C60.3983 61.874 60.4941 61.9011 60.594 61.9011H60.6815C60.7356 61.9011 60.771 61.9303 60.7877 61.9886C60.8085 62.0427 60.8189 62.1239 60.8189 62.2322C60.8189 62.353 60.8085 62.4426 60.7877 62.5009C60.771 62.5592 60.7356 62.5884 60.6815 62.5884H60.594C60.4732 62.5884 60.3503 62.5634 60.2254 62.5134C60.1004 62.4593 59.9921 62.3468 59.9005 62.176C59.788 62.3468 59.661 62.4593 59.5194 62.5134C59.3819 62.5634 59.2403 62.5884 59.0945 62.5884C58.9279 62.5884 58.7717 62.5571 58.6259 62.4947C58.4843 62.428 58.3739 62.3239 58.2948 62.1823C58.2156 62.3447 58.1136 62.453 57.9886 62.5072C57.8637 62.5613 57.7408 62.5884 57.62 62.5884H57.5638C57.5096 62.5884 57.4742 62.5613 57.4575 62.5072C57.4367 62.4488 57.4263 62.3655 57.4263 62.2572C57.4263 62.1364 57.4367 62.0469 57.4575 61.9886C57.4742 61.9303 57.5096 61.9011 57.5638 61.9011H57.62ZM59.5631 61.4513C59.5631 61.3096 59.5298 61.1909 59.4631 61.0951C59.4007 60.9993 59.2861 60.9514 59.1195 60.9514C58.9612 60.9514 58.8467 60.9993 58.7759 61.0951C58.7092 61.1868 58.6759 61.3075 58.6759 61.4575C58.6759 61.6033 58.7155 61.7137 58.7946 61.7886C58.8737 61.8636 58.982 61.9011 59.1195 61.9011C59.4152 61.9011 59.5631 61.7512 59.5631 61.4513ZM61.6501 61.9011C61.7042 61.9011 61.7396 61.9303 61.7563 61.9886C61.7771 62.0427 61.7875 62.1239 61.7875 62.2322C61.7875 62.353 61.7771 62.4426 61.7563 62.5009C61.7396 62.5592 61.7042 62.5884 61.6501 62.5884H60.6192C60.565 62.5884 60.5296 62.5613 60.5129 62.5072C60.4921 62.4488 60.4817 62.3655 60.4817 62.2572C60.4817 62.1364 60.4921 62.0469 60.5129 61.9886C60.5296 61.9303 60.565 61.9011 60.6192 61.9011H61.6501ZM62.6187 61.9011C62.6729 61.9011 62.7083 61.9303 62.725 61.9886C62.7458 62.0427 62.7562 62.1239 62.7562 62.2322C62.7562 62.353 62.7458 62.4426 62.725 62.5009C62.7083 62.5592 62.6729 62.5884 62.6187 62.5884H61.5878C61.5337 62.5884 61.4983 62.5613 61.4816 62.5072C61.4608 62.4488 61.4504 62.3655 61.4504 62.2572C61.4504 62.1364 61.4608 62.0469 61.4816 61.9886C61.4983 61.9303 61.5337 61.9011 61.5878 61.9011H62.6187ZM63.5874 61.9011C63.6416 61.9011 63.677 61.9303 63.6936 61.9886C63.7145 62.0427 63.7249 62.1239 63.7249 62.2322C63.7249 62.353 63.7145 62.4426 63.6936 62.5009C63.677 62.5592 63.6416 62.5884 63.5874 62.5884H62.5565C62.5024 62.5884 62.467 62.5613 62.4503 62.5072C62.4295 62.4488 62.4191 62.3655 62.4191 62.2572C62.4191 62.1364 62.4295 62.0469 62.4503 61.9886C62.467 61.9303 62.5024 61.9011 62.5565 61.9011H63.5874ZM65.3184 62.2385C65.2059 62.3051 65.0955 62.3614 64.9872 62.4072C64.8789 62.4488 64.7644 62.4842 64.6436 62.5134C64.5228 62.5384 64.3895 62.5571 64.2437 62.5696C64.1021 62.5821 63.9376 62.5884 63.7501 62.5884H63.5252C63.471 62.5884 63.4356 62.5613 63.419 62.5072C63.3981 62.4488 63.3877 62.3655 63.3877 62.2572C63.3877 62.1364 63.3981 62.0469 63.419 61.9886C63.4356 61.9303 63.471 61.9011 63.5252 61.9011H63.7751C63.9292 61.9011 64.0688 61.899 64.1937 61.8949C64.3187 61.8865 64.4311 61.874 64.5311 61.8574C64.6352 61.8407 64.7331 61.8178 64.8248 61.7886C64.9164 61.7553 65.008 61.7116 65.0997 61.6574L65.8932 61.2013C65.864 61.1472 65.8348 61.0993 65.8057 61.0576C65.7807 61.016 65.7474 60.9827 65.7057 60.9577C65.6682 60.9285 65.6203 60.9077 65.562 60.8952C65.5037 60.8785 65.4287 60.8702 65.3371 60.8702H64.0125L64.05 60.1829H65.4371C65.5537 60.1829 65.6682 60.1996 65.7807 60.2329C65.8973 60.2662 66.0056 60.3308 66.1056 60.4266C66.2097 60.5182 66.3034 60.6494 66.3868 60.8202C66.4742 60.9868 66.5471 61.2076 66.6054 61.4825L65.3184 62.2385ZM65.4121 63.9254H64.7061V63.2881H65.4121V63.9254Z" fill="#017988"/>
</svg>
