<svg xmlns="http://www.w3.org/2000/svg" width="72" height="47" viewBox="0 0 72 47" fill="none">
  <path d="M32.2859 18.4761C20.215 19.2151 6.41961 36.7055 1 46.8058C12.0856 36.952 34.0103 20.4468 35.4884 36.952C42.6324 29.5616 43.6178 18.4761 32.2859 18.4761Z" fill="#151515" stroke="#151515" stroke-width="0.492691" stroke-linecap="round"/>
  <path d="M20.2138 6.65153C14.7942 11.0858 23.6627 16.9981 13.5625 25.1275C21.4456 21.1861 21.9383 16.2504 25.6334 14.5348C32.5311 11.3323 44.8484 18.23 55.1949 25.1275C46.3265 15.0277 26.6188 1.41081 20.2138 6.65153Z" fill="#DED60E" stroke="#DED60E" stroke-width="0.492691" stroke-linecap="round"/>
  <circle cx="44.1074" cy="5.66595" r="5.41961" fill="#151515" stroke="#151515" stroke-width="0.492691"/>
  <path d="M70.2811 36.4912H68.6169V30.4306H67.5859V29.6351H68.6169V27.1123H70.2811V29.6351H71.9993V30.4306H70.2811V36.4912Z" fill="#151515"/>
  <path d="M66.7551 36.4911H65.0958V35.6719C64.8994 35.9964 64.6621 36.2378 64.3839 36.3961C64.109 36.5504 63.8063 36.6276 63.4757 36.6276C63.0437 36.6276 62.6575 36.5346 62.3172 36.3486C61.9768 36.1626 61.6888 35.9094 61.4531 35.5888C61.2175 35.2643 61.0375 34.8844 60.9131 34.4491C60.7887 34.0138 60.7266 33.5468 60.7266 33.0482C60.7266 32.5496 60.7887 32.0826 60.9131 31.6473C61.0375 31.212 61.2175 30.834 61.4531 30.5135C61.6888 30.189 61.9768 29.9337 62.3172 29.7477C62.6575 29.5617 63.0437 29.4688 63.4757 29.4688C63.695 29.4688 63.9028 29.5083 64.0992 29.5875C64.2989 29.6666 64.4805 29.7794 64.6441 29.9258C64.8111 30.0683 64.9567 30.2424 65.0811 30.4482C65.2087 30.65 65.3085 30.8756 65.3805 31.1249L66.1169 29.635H66.7551V36.4911ZM65.086 33.0482C65.086 32.8701 65.0778 32.6821 65.0614 32.4843C65.0483 32.2864 65.0238 32.0905 64.9878 31.8966C64.9518 31.7027 64.9011 31.5187 64.8356 31.3445C64.7734 31.1665 64.6916 31.0101 64.5901 30.8756C64.492 30.7371 64.3725 30.6283 64.2318 30.5491C64.091 30.47 63.9274 30.4304 63.7408 30.4304C63.5543 30.4304 63.3923 30.4719 63.2548 30.555C63.1174 30.6342 62.9995 30.743 62.9014 30.8815C62.8032 31.0161 62.7214 31.1724 62.6559 31.3505C62.5937 31.5286 62.5446 31.7146 62.5086 31.9085C62.4726 32.1024 62.4464 32.2983 62.4301 32.4961C62.417 32.69 62.4104 32.8741 62.4104 33.0482C62.4104 33.2223 62.417 33.4083 62.4301 33.6062C62.4464 33.804 62.4726 33.9999 62.5086 34.1938C62.5446 34.3877 62.5937 34.5737 62.6559 34.7518C62.7214 34.9299 62.8032 35.0882 62.9014 35.2267C62.9995 35.3613 63.1174 35.4701 63.2548 35.5532C63.3923 35.6323 63.5543 35.6719 63.7408 35.6719C63.911 35.6719 64.0616 35.6304 64.1925 35.5473C64.3267 35.4602 64.4429 35.3454 64.541 35.203C64.6425 35.0605 64.7276 34.8982 64.7963 34.7162C64.8651 34.5342 64.9207 34.3462 64.9632 34.1523C65.0058 33.9584 65.0369 33.7664 65.0565 33.5765C65.0762 33.3826 65.086 33.2065 65.086 33.0482Z" fill="#DED60E"/>
  <path d="M59.9502 32.5616C59.9502 33.0246 59.9027 33.5074 59.8078 34.01C59.7162 34.5126 59.5869 35.0053 59.42 35.4881C59.253 35.9709 59.0534 36.424 58.821 36.8474C58.5887 37.2748 58.3334 37.6428 58.0552 37.9515L57.4317 37.5419C57.5201 37.3441 57.6035 37.1224 57.6821 36.8771C57.7606 36.6317 57.831 36.3725 57.8932 36.0995C57.9586 35.8225 58.0159 35.5375 58.065 35.2447C58.1174 34.9518 58.1599 34.6629 58.1926 34.378C58.2287 34.0891 58.2548 33.8101 58.2712 33.541C58.2908 33.268 58.3007 33.0147 58.3007 32.7812C58.3007 32.6269 58.2957 32.4627 58.2859 32.2885C58.2761 32.1105 58.2548 31.9343 58.2221 31.7602C58.1926 31.5821 58.1517 31.412 58.0994 31.2497C58.047 31.0875 57.9766 30.945 57.8883 30.8223C57.8032 30.6997 57.6985 30.6007 57.5741 30.5255C57.453 30.4503 57.309 30.4127 57.1421 30.4127C56.9784 30.4127 56.8328 30.4583 56.7051 30.5493C56.5775 30.6363 56.4646 30.7531 56.3664 30.8995C56.2682 31.042 56.1831 31.2062 56.1111 31.3922C56.0424 31.5782 55.9851 31.7701 55.9393 31.968C55.8968 32.1619 55.8657 32.3538 55.846 32.5438C55.8264 32.7337 55.8166 32.9039 55.8166 33.0543V36.4912H54.1523V27.1123H55.8117V30.6442C56.0244 30.2683 56.2846 29.9794 56.5922 29.7776C56.9032 29.5718 57.2468 29.4689 57.6232 29.4689C58.0159 29.4689 58.3579 29.5461 58.6492 29.7004C58.9405 29.8548 59.1827 30.0704 59.3758 30.3474C59.5689 30.6205 59.7129 30.947 59.8078 31.3269C59.9027 31.7028 59.9502 32.1144 59.9502 32.5616Z" fill="#151515"/>
  <path d="M53.0975 34.3007C53.0975 34.6014 53.0615 34.8686 52.9895 35.1021C52.9175 35.3355 52.8193 35.5393 52.695 35.7135C52.5706 35.8836 52.4233 36.0281 52.2531 36.1468C52.083 36.2616 51.8997 36.3546 51.7033 36.4258C51.5102 36.497 51.3073 36.5485 51.0946 36.5801C50.8818 36.6118 50.6707 36.6276 50.4613 36.6276C50.1798 36.6276 49.9311 36.6058 49.7151 36.5623C49.4991 36.5188 49.2929 36.4495 49.0965 36.3546C48.9001 36.2556 48.7038 36.129 48.5074 35.9747C48.3143 35.8203 48.0983 35.6323 47.8594 35.4107L48.8265 34.455C48.9149 34.6568 49.031 34.8409 49.1751 35.0071C49.3223 35.1693 49.4745 35.3098 49.6316 35.4285C49.7887 35.5473 49.9409 35.6383 50.0882 35.7016C50.2354 35.7649 50.3549 35.7966 50.4465 35.7966C50.5218 35.7966 50.6069 35.7946 50.7018 35.7906C50.7967 35.7827 50.8933 35.7708 50.9915 35.755C51.0897 35.7352 51.1862 35.7075 51.2811 35.6719C51.376 35.6363 51.4595 35.5888 51.5315 35.5294C51.6068 35.4661 51.6657 35.389 51.7082 35.2979C51.754 35.203 51.7769 35.0902 51.7769 34.9596C51.7769 34.825 51.7475 34.7083 51.6886 34.6094C51.6329 34.5065 51.5593 34.4174 51.4677 34.3422C51.376 34.267 51.2713 34.2037 51.1535 34.1523C51.0357 34.1008 50.9162 34.0553 50.7951 34.0158C50.6773 33.9762 50.5627 33.9425 50.4515 33.9148C50.3402 33.8832 50.2436 33.8535 50.1618 33.8258C50.0113 33.7744 49.8525 33.7229 49.6856 33.6715C49.5187 33.6161 49.3534 33.5547 49.1898 33.4874C49.0261 33.4162 48.869 33.3331 48.7185 33.2381C48.5712 33.1432 48.4403 33.0304 48.3258 32.8998C48.2145 32.7652 48.1245 32.6089 48.0557 32.4308C47.9903 32.2488 47.9576 32.0371 47.9576 31.7957C47.9576 31.3525 48.0296 30.9824 48.1736 30.6856C48.3208 30.3849 48.5139 30.1455 48.7529 29.9674C48.9918 29.7853 49.2634 29.6567 49.5678 29.5815C49.8722 29.5063 50.1814 29.4688 50.4956 29.4688C50.7116 29.4688 50.9391 29.4965 51.178 29.5519C51.4169 29.6033 51.6493 29.6824 51.8751 29.7893C52.101 29.8922 52.3121 30.0188 52.5084 30.1692C52.7048 30.3196 52.8684 30.4917 52.9994 30.6856L52.0322 31.6473C51.9602 31.4098 51.8653 31.206 51.7475 31.0359C51.6329 30.8657 51.5069 30.7272 51.3695 30.6203C51.2353 30.5095 51.0962 30.4284 50.9522 30.377C50.8115 30.3255 50.6806 30.2998 50.5595 30.2998C50.4416 30.2998 50.3091 30.3057 50.1618 30.3176C50.0145 30.3295 49.8754 30.3631 49.7445 30.4185C49.6169 30.4739 49.5072 30.559 49.4156 30.6738C49.3272 30.7846 49.2831 30.9389 49.2831 31.1368C49.2831 31.2792 49.3092 31.4019 49.3616 31.5048C49.4172 31.6037 49.4892 31.6908 49.5776 31.766C49.666 31.8372 49.7658 31.8986 49.8771 31.95C49.9916 31.9975 50.1078 32.041 50.2256 32.0806C50.3435 32.1162 50.458 32.1479 50.5693 32.1756C50.6806 32.2033 50.7804 32.233 50.8687 32.2646C51.0193 32.3161 51.178 32.3695 51.3449 32.4249C51.5151 32.4763 51.682 32.5377 51.8457 32.6089C52.0093 32.6762 52.1664 32.7573 52.317 32.8523C52.4708 32.9433 52.605 33.0561 52.7195 33.1906C52.8341 33.3252 52.9257 33.4835 52.9944 33.6655C53.0632 33.8436 53.0975 34.0553 53.0975 34.3007Z" fill="#151515"/>
  <path d="M43.096 33.2381C43.2989 33.2935 43.5019 33.3371 43.7048 33.3687C43.9077 33.4004 44.1122 33.4162 44.3184 33.4162C44.5344 33.4162 44.7341 33.3925 44.9174 33.345C45.1039 33.2935 45.2643 33.2104 45.3985 33.0957C45.5359 32.9769 45.6439 32.8206 45.7225 32.6267C45.801 32.4328 45.8403 32.1914 45.8403 31.9025C45.8403 31.669 45.8141 31.4553 45.7617 31.2614C45.7094 31.0675 45.6308 30.9013 45.5261 30.7628C45.4246 30.6243 45.2986 30.5175 45.1481 30.4423C44.9975 30.3631 44.8224 30.3235 44.6228 30.3235C44.4363 30.3235 44.2677 30.3651 44.1172 30.4482C43.9699 30.5313 43.839 30.6441 43.7244 30.7866C43.6131 30.9251 43.5166 31.0873 43.4348 31.2733C43.3562 31.4593 43.2908 31.6532 43.2384 31.855C43.186 32.0569 43.1484 32.2607 43.1255 32.4665C43.1026 32.6722 43.0911 32.8661 43.0911 33.0482C43.0911 33.0798 43.0911 33.1115 43.0911 33.1432C43.0911 33.1748 43.0928 33.2065 43.096 33.2381ZM47.1854 31.8847C47.1854 32.1657 47.1478 32.417 47.0725 32.6386C46.9972 32.8563 46.8941 33.0482 46.7632 33.2144C46.6356 33.3806 46.4867 33.5211 46.3165 33.6359C46.1463 33.7506 45.9647 33.8456 45.7716 33.9208C45.5785 33.992 45.3788 34.0435 45.1726 34.0751C44.9697 34.1068 44.7717 34.1226 44.5786 34.1226C44.3332 34.1226 44.091 34.1028 43.8521 34.0632C43.6131 34.0197 43.3775 33.9524 43.1451 33.8614C43.1811 34.1226 43.2384 34.3719 43.3169 34.6094C43.3955 34.8428 43.5002 35.0486 43.6311 35.2267C43.7621 35.4008 43.9224 35.5393 44.1122 35.6422C44.3053 35.7451 44.5328 35.7966 44.7946 35.7966C44.9681 35.7966 45.1334 35.7649 45.2905 35.7016C45.4476 35.6383 45.5916 35.5492 45.7225 35.4345C45.8534 35.3197 45.9679 35.1832 46.0661 35.0249C46.1676 34.8666 46.2494 34.6905 46.3116 34.4966L47.0283 34.8171C46.9203 35.1298 46.7714 35.4008 46.5816 35.6304C46.395 35.8559 46.1823 36.0439 45.9434 36.1943C45.7077 36.3407 45.4557 36.4495 45.1874 36.5208C44.9223 36.592 44.6588 36.6276 44.397 36.6276C43.965 36.6276 43.5657 36.5406 43.1991 36.3664C42.8326 36.1883 42.5167 35.941 42.2516 35.6244C41.9865 35.3078 41.7787 34.9299 41.6282 34.4906C41.4776 34.0514 41.4023 33.5706 41.4023 33.0482C41.4023 32.5258 41.4776 32.045 41.6282 31.6057C41.7787 31.1665 41.9865 30.7885 42.2516 30.4719C42.5167 30.1554 42.8326 29.91 43.1991 29.7359C43.5657 29.5578 43.965 29.4688 44.397 29.4688C44.6064 29.4688 44.8208 29.4866 45.0401 29.5222C45.2594 29.5578 45.4721 29.6152 45.6783 29.6943C45.8845 29.7695 46.0792 29.8684 46.2625 29.9911C46.4458 30.1138 46.6045 30.2662 46.7387 30.4482C46.8761 30.6263 46.9842 30.834 47.0627 31.0715C47.1445 31.3089 47.1854 31.58 47.1854 31.8847Z" fill="#151515"/>
</svg>