<svg width="444" height="97" viewBox="0 0 444 97" fill="none" xmlns="http://www.w3.org/2000/svg">
<g opacity="0.05">
<path d="M437.378 81.5535C440.952 81.5535 445.241 80.8397 450.245 79.4122V93.3002C445.152 95.3803 438.897 96.4204 431.481 96.4204C423.305 96.4204 417.341 94.5442 413.588 90.7918C409.88 86.9986 408.026 81.3292 408.026 73.7836V40.8073H398.242V32.9151L409.5 26.6747L415.398 12.2361H428.465V26.797H449.441V40.8073H428.465V73.7836C428.465 76.4348 429.269 78.3925 430.878 79.6569C432.531 80.9213 434.698 81.5535 437.378 81.5535Z" fill="#686868"/>
<path d="M371.8 95.1965L367.847 85.8971H367.31C363.87 89.8534 360.319 92.6066 356.655 94.1565C353.037 95.6656 348.301 96.4201 342.448 96.4201C335.256 96.4201 329.582 94.5439 325.427 90.7915C321.317 87.0391 319.262 81.696 319.262 74.7623C319.262 67.5022 322.032 62.1591 327.571 58.733C333.156 55.2661 341.555 53.3491 352.768 52.982L365.769 52.6149V49.6171C365.769 42.6833 361.882 39.2164 354.109 39.2164C348.122 39.2164 341.086 40.8683 332.999 44.172L326.231 31.5689C334.854 27.4494 344.414 25.3896 354.913 25.3896C364.965 25.3896 372.671 27.3882 378.033 31.3853C383.394 35.3825 386.074 41.4597 386.074 49.6171V95.1965H371.8ZM365.769 63.5051L357.862 63.7498C351.92 63.9129 347.497 64.8918 344.593 66.6864C341.689 68.4811 340.237 71.2138 340.237 74.8846C340.237 80.1461 343.543 82.7769 350.155 82.7769C354.891 82.7769 358.666 81.5329 361.48 79.0449C364.339 76.5569 365.769 73.2531 365.769 69.1337V63.5051Z" fill="#686868"/>
<path d="M304.552 95.1967H284.113V55.2459C284.113 45.3755 280.093 40.4403 272.051 40.4403C266.332 40.4403 262.2 42.2145 259.653 45.763C257.107 49.3114 255.834 55.0624 255.834 63.0158V95.1967H235.395V0H255.834V19.3942C255.834 20.9033 255.677 24.4518 255.365 30.0396L254.895 35.5458H255.968C260.525 28.8568 267.762 25.5122 277.68 25.5122C286.481 25.5122 293.16 27.6739 297.717 31.9974C302.274 36.3208 304.552 42.5204 304.552 50.5962V95.1967Z" fill="#686868"/>
<path d="M220.816 74.8846C220.816 81.8999 218.135 87.243 212.774 90.9138C207.458 94.5847 199.483 96.4201 188.85 96.4201C183.4 96.4201 178.754 96.0734 174.911 95.38C171.069 94.7274 167.473 93.7485 164.122 92.4434V77.0259C167.92 78.6574 172.186 80.0237 176.922 81.125C181.702 82.2262 185.902 82.7768 189.52 82.7768C196.937 82.7768 200.645 80.8191 200.645 76.9035C200.645 75.4352 200.153 74.2524 199.17 73.3551C198.188 72.417 196.49 71.3769 194.077 70.2349C191.665 69.052 188.448 67.6857 184.427 66.1358C178.664 63.9333 174.42 61.8939 171.695 60.0177C169.014 58.1415 167.049 56.0002 165.798 53.5938C164.591 51.1466 163.988 48.1487 163.988 44.6003C163.988 38.523 166.557 33.8325 171.695 30.5288C176.877 27.1842 184.204 25.512 193.675 25.512C202.7 25.512 211.479 27.3066 220.012 30.8958L213.846 44.3555C210.094 42.8872 206.587 41.684 203.325 40.7459C200.064 39.8078 196.736 39.3387 193.34 39.3387C187.309 39.3387 184.293 40.8275 184.293 43.8049C184.293 45.4772 185.254 46.9251 187.175 48.1487C189.141 49.3723 193.407 51.1874 199.975 53.5938C205.827 55.7555 210.116 57.7744 212.841 59.6506C215.566 61.5268 217.577 63.6886 218.872 66.1358C220.168 68.583 220.816 71.4993 220.816 74.8846Z" fill="#686868"/>
<path d="M119.862 38.7881C115.528 38.7881 112.133 40.0525 109.675 42.5813C107.218 45.0693 105.811 48.6178 105.454 53.2267H134.135C134.046 48.6178 132.728 45.0693 130.182 42.5813C127.635 40.0525 124.195 38.7881 119.862 38.7881ZM122.743 96.4201C110.681 96.4201 101.254 93.3815 94.4634 87.3042C87.6727 81.2269 84.2773 72.6209 84.2773 61.4861C84.2773 50.0249 87.4046 41.1742 93.6592 34.9337C99.9585 28.6526 108.648 25.512 119.727 25.512C130.316 25.512 138.558 28.2651 144.455 33.7713C150.353 39.2776 153.301 46.8843 153.301 56.5916V65.6463H104.985C105.208 70.9486 106.928 75.0885 110.145 78.066C113.361 81.0434 117.873 82.5321 123.681 82.5321C128.194 82.5321 132.46 82.1039 136.481 81.2473C140.502 80.3908 144.701 79.0244 149.079 77.1482V91.5868C145.505 93.2183 141.686 94.4215 137.62 95.1965C133.555 96.0122 128.596 96.4201 122.743 96.4201Z" fill="#686868"/>
<path d="M69.158 95.1965H48.7188V55.2457C48.7188 50.3104 47.7583 46.6192 45.8372 44.172C43.9162 41.684 40.8559 40.44 36.6564 40.44C30.9379 40.44 26.8054 42.1938 24.2589 45.7015C21.7124 49.1684 20.4391 54.9398 20.4391 63.0156V95.1965H0V26.7968H15.6142L18.3617 35.5456H19.5009C21.7794 32.2418 24.9067 29.7538 28.8828 28.0815C32.9036 26.3685 37.4606 25.512 42.5536 25.512C51.2653 25.512 57.8773 27.6737 62.3896 31.9971C66.9018 36.2797 69.158 42.4793 69.158 50.5959V95.1965Z" fill="#686868"/>
</g>
</svg>
