<svg xmlns="http://www.w3.org/2000/svg" width="20" height="20" viewBox="0 0 20 20" fill="none">
  <path fill-rule="evenodd" clip-rule="evenodd" d="M18.3881 1.06551C17.6913 0.381747 16.8768 0 15.9785 0C15.6234 0 15.2621 0.075408 14.932 0.232951C14.5908 0.391301 14.2799 0.63374 14.0382 0.98149L11.8918 4.00669C11.7019 4.27083 11.5532 4.52926 11.4457 4.79093C11.3364 5.04737 11.262 5.33401 11.262 5.62456C11.262 5.98304 11.3664 6.32566 11.552 6.63401C11.7098 6.91055 11.9252 7.17726 12.1741 7.42685L12.8124 8.09025C12.8059 8.10551 12.7972 8.12614 12.7878 8.15005C12.6492 8.39319 12.4036 8.73539 12.0312 9.17572C11.6234 9.64691 11.1908 10.1243 10.7242 10.6002C10.2313 11.0838 9.76451 11.5232 9.29314 11.9235C8.84743 12.3005 8.50014 12.5409 8.24773 12.6781C8.22734 12.6869 8.20853 12.6955 8.19324 12.7024L7.55416 12.0718C7.30073 11.8186 7.02904 11.5955 6.73901 11.4406C6.43601 11.2601 6.10567 11.1565 5.73938 11.1565C5.46149 11.1565 5.18693 11.2158 4.91098 11.3286C4.64884 11.4359 4.39217 11.5835 4.13476 11.7586L4.12892 11.7626L1.05913 13.942C0.730556 14.1703 0.473049 14.4594 0.312653 14.8239L0.307926 14.8348L0.30348 14.8458C0.185429 15.1409 0.105555 15.4607 0.105555 15.8266C0.105555 16.2644 0.203127 16.7085 0.40374 17.1334C0.505945 17.3498 0.625664 17.5613 0.766603 17.7669C0.815529 17.8384 0.866955 17.909 0.920977 17.9787C0.991955 18.0703 1.06738 18.1602 1.14735 18.2484C1.34583 18.4672 1.55534 18.666 1.77698 18.8433C2.12836 19.1245 2.50706 19.3494 2.91644 19.5174C3.55979 19.7852 4.25262 19.9222 4.98882 19.9222C6.04387 19.9222 7.14663 19.674 8.28201 19.1902C9.4009 18.7135 10.5119 18.0747 11.6062 17.278L11.6071 17.2773C12.7013 16.4781 13.7377 15.5936 14.7255 14.6154L14.7303 14.6107C15.7084 13.623 16.593 12.5864 17.3835 11.5006L17.3859 11.4975C18.1702 10.4071 18.8092 9.306 19.2775 8.20352L19.2784 8.20148C19.7524 7.07569 20 5.9739 20 4.9018C20 4.19001 19.8744 3.50012 19.6174 2.85715C19.3561 2.19379 18.9457 1.59289 18.3881 1.06551Z" fill="#2E2E2E"/>
</svg>