<svg width="25" height="24" viewBox="0 0 25 24" fill="none" xmlns="http://www.w3.org/2000/svg">
<circle cx="12.1194" cy="11.9319" r="11.9319" fill="#EBEBEB"/>
<path d="M9.40121 12.2935L15.9068 8.28665C16.0237 8.21484 16.144 8.37294 16.0436 8.46608L10.6746 13.4568C10.4859 13.6325 10.3642 13.8676 10.3297 14.1228L10.1468 15.4782C10.1226 15.6591 9.86835 15.6771 9.81841 15.502L9.11502 13.0304C9.03446 12.7485 9.15187 12.4474 9.40121 12.2935Z" fill="#EBEBEB"/>
<path d="M4.98953 11.7127L8.31828 12.9551L9.60672 17.0987C9.68917 17.364 10.0137 17.4621 10.2291 17.286L12.0846 15.7734C12.2791 15.6149 12.5561 15.607 12.7594 15.7546L16.106 18.1843C16.3365 18.3518 16.6629 18.2255 16.7207 17.9471L19.1723 6.15444C19.2354 5.8503 18.9365 5.59655 18.6469 5.70857L4.98564 10.9786C4.64851 11.1087 4.65145 11.586 4.98953 11.7127ZM9.39908 12.2937L15.9047 8.2869C16.0216 8.21509 16.1419 8.37318 16.0415 8.46632L10.6725 13.4571C10.4838 13.6328 10.362 13.8679 10.3275 14.123L10.1447 15.4784C10.1204 15.6594 9.86622 15.6773 9.81628 15.5022L9.11289 13.0306C9.03233 12.7487 9.14974 12.4476 9.39908 12.2937Z" fill="#32323C"/>
</svg>
