<svg width="150" height="150" viewBox="0 0 186 186" fill="none" xmlns="http://www.w3.org/2000/svg">
<g filter="url(#filter0_f_2972_900)">
<rect x="55" y="55" width="75.9061" height="75.9061" fill="black" fill-opacity="0.7"/>
</g>
<path fill-rule="evenodd" clip-rule="evenodd" d="M94.3683 66.7508C94.3683 70.6474 91.2094 73.8062 87.3128 73.8062C83.4162 73.8062 80.2574 70.6474 80.2574 66.7508C80.2574 62.8541 83.4162 59.6953 87.3128 59.6953C91.2094 59.6953 94.3683 62.8541 94.3683 66.7508ZM111.815 100.852C109.15 103.674 105.217 103.726 103.584 103.4L109.855 123.978C114.559 127.506 118.283 123.782 117.695 121.43L111.815 100.852ZM71.0004 83.4094C70.2165 88.2698 74.9854 89.7462 77.4679 89.8769V91.0527H68.3008V93.9924H79.0799V124.174H82.0197V92.4246C85.4343 93.2981 89.2029 94.8473 92.9343 96.3812L92.9344 96.3813C98.4121 98.6331 103.81 100.852 107.89 100.852C115.925 97.7161 111.025 79.8817 102.01 75.3739C96.1627 72.4501 93.098 75.2979 90.1393 78.0473C89.4487 78.689 88.7639 79.3254 88.0508 79.8817C76.7281 79.0978 71.3481 81.2534 71.0004 83.4094ZM90.2516 86.349C94.9552 89.6416 98.6136 90.0727 99.8548 89.8768C98.1301 87.0546 95.4778 84.1279 94.3672 83.0173C92.4858 83.4877 90.8395 85.4344 90.2516 86.349Z" fill="#DFD82A"/>
<path d="M103.584 103.4L103.622 103.207L103.301 103.143L103.396 103.457L103.584 103.4ZM111.815 100.852L112.004 100.798L111.909 100.467L111.673 100.717L111.815 100.852ZM109.855 123.978L109.668 124.035L109.686 124.096L109.738 124.135L109.855 123.978ZM117.695 121.43L117.885 121.383L117.883 121.376L117.695 121.43ZM77.4679 89.8769H77.6639V89.691L77.4782 89.6812L77.4679 89.8769ZM71.0004 83.4094L71.1939 83.4406L71.1939 83.4406L71.0004 83.4094ZM77.4679 91.0527V91.2487H77.6639V91.0527H77.4679ZM68.3008 91.0527V90.8567H68.1048V91.0527H68.3008ZM68.3008 93.9924H68.1048V94.1884H68.3008V93.9924ZM79.0799 93.9924H79.2759V93.7965H79.0799V93.9924ZM79.0799 124.174H78.884V124.37H79.0799V124.174ZM82.0197 124.174V124.37H82.2157V124.174H82.0197ZM82.0197 92.4246L82.0683 92.2347L81.8237 92.1721V92.4246H82.0197ZM92.9343 96.3812L92.8598 96.5625L92.8646 96.5644L92.9343 96.3812ZM92.9344 96.3813L93.009 96.1999L93.0042 96.1981L92.9344 96.3813ZM107.89 100.852V101.048H107.927L107.961 101.034L107.89 100.852ZM102.01 75.3739L102.098 75.1986L102.01 75.3739ZM90.1393 78.0473L90.0059 77.9037V77.9037L90.1393 78.0473ZM88.0508 79.8817L88.0373 80.0772L88.1122 80.0824L88.1714 80.0362L88.0508 79.8817ZM99.8548 89.8768L99.8854 90.0703L100.175 90.0246L100.022 89.7746L99.8548 89.8768ZM90.2516 86.349L90.0867 86.2431L89.9848 86.4015L90.1392 86.5096L90.2516 86.349ZM94.3672 83.0173L94.5058 82.8787L94.4274 82.8002L94.3197 82.8272L94.3672 83.0173ZM87.3128 74.0022C91.3177 74.0022 94.5643 70.7556 94.5643 66.7508H94.1723C94.1723 70.5391 91.1012 73.6102 87.3128 73.6102V74.0022ZM80.0614 66.7508C80.0614 70.7556 83.308 74.0022 87.3128 74.0022V73.6102C83.5244 73.6102 80.4534 70.5391 80.4534 66.7508H80.0614ZM87.3128 59.4993C83.308 59.4993 80.0614 62.7459 80.0614 66.7508H80.4534C80.4534 62.9624 83.5244 59.8913 87.3128 59.8913V59.4993ZM94.5643 66.7508C94.5643 62.7459 91.3177 59.4993 87.3128 59.4993V59.8913C91.1012 59.8913 94.1723 62.9624 94.1723 66.7508H94.5643ZM103.545 103.592C105.214 103.926 109.228 103.877 111.958 100.986L111.673 100.717C109.072 103.471 105.22 103.527 103.622 103.207L103.545 103.592ZM110.043 123.921L103.771 103.343L103.396 103.457L109.668 124.035L110.043 123.921ZM117.504 121.478C117.77 122.542 117.058 123.981 115.666 124.737C114.297 125.479 112.273 125.546 109.973 123.821L109.738 124.135C112.141 125.938 114.33 125.907 115.853 125.081C117.351 124.269 118.207 122.671 117.885 121.383L117.504 121.478ZM111.627 100.906L117.506 121.484L117.883 121.376L112.004 100.798L111.627 100.906ZM77.4782 89.6812C76.2606 89.6171 74.4874 89.2218 73.1224 88.2568C72.4423 87.776 71.8679 87.157 71.5095 86.3708C71.1516 85.5857 71.0034 84.6218 71.1939 83.4406L70.8069 83.3782C70.6055 84.6272 70.7594 85.6705 71.1528 86.5334C71.5456 87.395 72.1716 88.0646 72.8961 88.5769C74.3402 89.5978 76.1927 90.006 77.4576 90.0726L77.4782 89.6812ZM77.6639 91.0527V89.8769H77.2719V91.0527H77.6639ZM68.3008 91.2487H77.4679V90.8567H68.3008V91.2487ZM68.4968 93.9924V91.0527H68.1048V93.9924H68.4968ZM79.0799 93.7965H68.3008V94.1884H79.0799V93.7965ZM79.2759 124.174V93.9924H78.884V124.174H79.2759ZM82.0197 123.978H79.0799V124.37H82.0197V123.978ZM81.8237 92.4246V124.174H82.2157V92.4246H81.8237ZM93.0088 96.2C89.2809 94.6674 85.4988 93.1123 82.0683 92.2347L81.9711 92.6144C85.3699 93.4839 89.1249 95.0271 92.8598 96.5625L93.0088 96.2ZM93.0042 96.1981L93.0041 96.1981L92.8646 96.5644L92.8647 96.5644L93.0042 96.1981ZM107.89 100.656C105.881 100.656 103.535 100.109 100.997 99.2748C98.4613 98.4413 95.7493 97.3265 93.009 96.2L92.8599 96.5625C95.5972 97.6878 98.3228 98.8084 100.875 99.6472C103.425 100.485 105.818 101.048 107.89 101.048V100.656ZM101.922 75.5492C106.36 77.7683 109.814 83.2926 111.154 88.6747C111.822 91.362 111.958 93.9925 111.438 96.1358C110.919 98.2748 109.752 99.9146 107.818 100.669L107.961 101.034C110.045 100.221 111.279 98.4559 111.819 96.2282C112.359 94.0047 112.213 91.3069 111.534 88.5801C110.179 83.1341 106.675 77.4873 102.098 75.1986L101.922 75.5492ZM90.2727 78.1909C91.7579 76.8107 93.2356 75.4412 95.0594 74.767C96.8672 74.0987 99.0386 74.1072 101.922 75.5492L102.098 75.1986C99.1342 73.7168 96.8496 73.6873 94.9235 74.3993C93.0134 75.1054 91.4793 76.5345 90.0059 77.9037L90.2727 78.1909ZM88.1714 80.0362C88.8923 79.4738 89.5833 78.8315 90.2727 78.1909L90.0059 77.9037C89.3141 78.5466 88.6355 79.1769 87.9303 79.7272L88.1714 80.0362ZM71.1939 83.4406C71.2687 82.9769 71.6209 82.4787 72.3286 82.0008C73.0337 81.5248 74.0692 81.085 75.4581 80.7331C78.2349 80.0295 82.388 79.6861 88.0373 80.0772L88.0644 79.6862C82.3909 79.2934 78.1927 79.6358 75.3619 80.3531C73.947 80.7116 72.8646 81.166 72.1093 81.676C71.3566 82.1842 70.906 82.7639 70.8069 83.3782L71.1939 83.4406ZM99.8242 89.6832C98.6493 89.8687 95.0417 89.4629 90.3639 86.1885L90.1392 86.5096C94.8687 89.8203 98.5778 90.2768 99.8854 90.0703L99.8242 89.6832ZM94.2287 83.1559C95.3338 84.2611 97.9743 87.1753 99.6876 89.979L100.022 89.7746C98.286 86.9338 95.6218 83.9947 94.5058 82.8787L94.2287 83.1559ZM90.4164 86.455C90.7018 86.0111 91.2496 85.3089 91.9567 84.6611C92.6656 84.0117 93.519 83.4314 94.4148 83.2074L94.3197 82.8272C93.334 83.0736 92.4235 83.7019 91.6919 84.3721C90.9586 85.0439 90.3893 85.7724 90.0867 86.2431L90.4164 86.455Z" fill="#DFD82A"/>
<defs>
<filter id="filter0_f_2972_900" x="0.222408" y="0.222408" width="185.461" height="185.461" filterUnits="userSpaceOnUse" color-interpolation-filters="sRGB">
<feFlood flood-opacity="0" result="BackgroundImageFix"/>
<feBlend mode="normal" in="SourceGraphic" in2="BackgroundImageFix" result="shape"/>
<feGaussianBlur stdDeviation="27.3888" result="effect1_foregroundBlur_2972_900"/>
</filter>
</defs>
</svg>
