<svg xmlns="http://www.w3.org/2000/svg" width="139" height="139" viewBox="0 0 139 139" fill="none">
  <g filter="url(#filter0_f_2981_1871)">
    <rect x="41.1641" y="41" width="56.4597" height="56.4597" fill="black" fill-opacity="0.7"/>
  </g>
  <path fill-rule="evenodd" clip-rule="evenodd" d="M70.2516 44.7036L69.7665 44.4922L69.2792 44.6986L51.5428 52.2119L50.8812 52.4922L50.7995 53.206C48.227 75.6752 62.0909 86.96 67.4686 91.3372L67.4687 91.3373C68.0754 91.8312 68.5741 92.2371 68.9289 92.5612L69.8309 93.3851L70.6622 92.4899C71.0509 92.0712 71.7109 91.5063 72.5546 90.784L72.5547 90.7839C78.0883 86.0468 91.5274 74.5422 88.2205 53.1578L88.1169 52.4878L87.4953 52.2169L70.2516 44.7036ZM69.0148 89.4146C63.6528 85.0239 51.1257 74.766 53.1708 54.1976L69.7528 47.1733L85.8841 54.202C88.5824 73.6099 76.7053 83.9061 71.0725 88.7891C70.562 89.2317 70.1027 89.6298 69.7103 89.9862C69.4952 89.8079 69.2627 89.6175 69.0148 89.4146ZM70.0576 52.854L81.5123 57.0417C82.1282 72.0684 76.216 78.1037 70.0576 84.139V52.854Z" fill="#DFD82A"/>
  <path d="M69.7665 44.4922L69.8157 44.3793L69.7671 44.3581L69.7184 44.3788L69.7665 44.4922ZM70.2516 44.7036L70.3008 44.5907V44.5907L70.2516 44.7036ZM69.2792 44.6986L69.3272 44.812V44.812L69.2792 44.6986ZM51.5428 52.2119L51.4947 52.0985L51.5428 52.2119ZM50.8812 52.4922L50.8332 52.3788L50.767 52.4068L50.7589 52.4782L50.8812 52.4922ZM50.7995 53.206L50.6771 53.192L50.7995 53.206ZM67.4686 91.3372L67.3908 91.4328L67.393 91.4345L67.4686 91.3372ZM67.4687 91.3373L67.5465 91.2418L67.5443 91.2401L67.4687 91.3373ZM68.9289 92.5612L69.012 92.4703L68.9289 92.5612ZM69.8309 93.3851L69.7479 93.476L69.8381 93.5584L69.9212 93.4689L69.8309 93.3851ZM70.6622 92.4899L70.5719 92.4061L70.6622 92.4899ZM72.5546 90.784L72.6347 90.8775L72.6357 90.8767L72.5546 90.784ZM72.5547 90.7839L72.4746 90.6903L72.4736 90.6912L72.5547 90.7839ZM88.2205 53.1578L88.0988 53.1767L88.2205 53.1578ZM88.1169 52.4878L88.2386 52.4689L88.2283 52.4019L88.1661 52.3748L88.1169 52.4878ZM87.4953 52.2169L87.4461 52.3298L87.4953 52.2169ZM53.1708 54.1976L53.1228 54.0842L53.0555 54.1127L53.0482 54.1854L53.1708 54.1976ZM69.0148 89.4146L68.9368 89.5099L69.0148 89.4146ZM69.7528 47.1733L69.802 47.0604L69.7534 47.0392L69.7047 47.0599L69.7528 47.1733ZM85.8841 54.202L86.0061 54.185L85.9966 54.1166L85.9333 54.089L85.8841 54.202ZM71.0725 88.7891L70.9919 88.696L71.0725 88.7891ZM69.7103 89.9862L69.6316 90.0811L69.7139 90.1493L69.7931 90.0774L69.7103 89.9862ZM81.5123 57.0417L81.6354 57.0367L81.632 56.9543L81.5546 56.926L81.5123 57.0417ZM70.0576 52.854L70.0998 52.7383L69.9344 52.6778V52.854H70.0576ZM70.0576 84.139H69.9344V84.4321L70.1438 84.227L70.0576 84.139ZM69.7173 44.6051L70.2024 44.8165L70.3008 44.5907L69.8157 44.3793L69.7173 44.6051ZM69.3272 44.812L69.8145 44.6056L69.7184 44.3788L69.2311 44.5852L69.3272 44.812ZM51.5908 52.3254L69.3272 44.812L69.2311 44.5852L51.4947 52.0985L51.5908 52.3254ZM50.9293 52.6056L51.5908 52.3254L51.4947 52.0985L50.8332 52.3788L50.9293 52.6056ZM50.9219 53.22L51.0036 52.5062L50.7589 52.4782L50.6771 53.192L50.9219 53.22ZM67.5463 91.2417C62.1735 86.8684 48.3571 75.6214 50.9219 53.22L50.6771 53.192C48.0968 75.7291 62.0084 87.0516 67.3908 91.4328L67.5463 91.2417ZM67.5443 91.2401L67.5442 91.24L67.393 91.4345L67.3931 91.4345L67.5443 91.2401ZM69.012 92.4703C68.6539 92.1432 68.152 91.7347 67.5464 91.2418L67.3909 91.4328C67.9988 91.9276 68.4942 92.3309 68.8459 92.6521L69.012 92.4703ZM69.914 93.2941L69.012 92.4703L68.8459 92.6521L69.7479 93.476L69.914 93.2941ZM70.5719 92.4061L69.7407 93.3013L69.9212 93.4689L70.7524 92.5737L70.5719 92.4061ZM72.4745 90.6904C71.6335 91.4103 70.9667 91.9809 70.5719 92.4061L70.7524 92.5737C71.1351 92.1616 71.7882 91.6022 72.6347 90.8775L72.4745 90.6904ZM72.4736 90.6912L72.4735 90.6913L72.6357 90.8767L72.6358 90.8766L72.4736 90.6912ZM88.0988 53.1767C91.3949 74.491 78.0055 85.9556 72.4746 90.6903L72.6348 90.8775C78.1711 86.1381 91.66 74.5934 88.3423 53.139L88.0988 53.1767ZM87.9952 52.5066L88.0988 53.1767L88.3423 53.139L88.2386 52.4689L87.9952 52.5066ZM87.4461 52.3298L88.0677 52.6007L88.1661 52.3748L87.5445 52.104L87.4461 52.3298ZM70.2024 44.8165L87.4461 52.3298L87.5445 52.104L70.3008 44.5907L70.2024 44.8165ZM53.0482 54.1854C50.9965 74.8206 63.5702 85.1155 68.9368 89.5099L69.0929 89.3193C63.7354 84.9323 51.2549 74.7114 53.2934 54.2098L53.0482 54.1854ZM69.7047 47.0599L53.1228 54.0842L53.2188 54.311L69.8008 47.2867L69.7047 47.0599ZM85.9333 54.089L69.802 47.0604L69.7036 47.2862L85.8349 54.3149L85.9333 54.089ZM71.1532 88.8822C76.7885 83.9969 88.7139 73.6616 86.0061 54.185L85.7621 54.2189C88.4509 73.5583 76.6221 83.8152 70.9919 88.696L71.1532 88.8822ZM69.7931 90.0774C70.1842 89.7222 70.6423 89.325 71.1532 88.8822L70.9919 88.696C70.4816 89.1384 70.0212 89.5375 69.6274 89.8951L69.7931 90.0774ZM68.9368 89.5099C69.1847 89.7129 69.4169 89.903 69.6316 90.0811L69.7889 89.8914C69.5735 89.7128 69.3406 89.5222 69.0929 89.3193L68.9368 89.5099ZM81.5546 56.926L70.0998 52.7383L70.0153 52.9696L81.47 57.1574L81.5546 56.926ZM70.1438 84.227C73.2223 81.21 76.2534 78.1801 78.4344 74.0193C80.6168 69.8556 81.944 64.568 81.6354 57.0367L81.3892 57.0468C81.6964 64.5421 80.3755 69.7855 78.2162 73.9049C76.0555 78.0272 73.0513 81.0327 69.9713 84.051L70.1438 84.227ZM69.9344 52.854V84.139H70.1807V52.854H69.9344Z" fill="#DFD82A"/>
  <defs>
    <filter id="filter0_f_2981_1871" x="0.419971" y="0.255909" width="137.949" height="137.948" filterUnits="userSpaceOnUse" color-interpolation-filters="sRGB">
      <feFlood flood-opacity="0" result="BackgroundImageFix"/>
      <feBlend mode="normal" in="SourceGraphic" in2="BackgroundImageFix" result="shape"/>
      <feGaussianBlur stdDeviation="20.372" result="effect1_foregroundBlur_2981_1871"/>
    </filter>
  </defs>
</svg>