<svg width="24" height="24" viewBox="0 0 24 24" fill="none" xmlns="http://www.w3.org/2000/svg">
<circle cx="11.9319" cy="11.9319" r="11.9319" fill="#EBEBEB"/>
<path fill-rule="evenodd" clip-rule="evenodd" d="M11.8966 4C9.75188 4 9.4834 4.00895 8.6411 4.04738C7.80037 4.08581 7.22602 4.21953 6.7238 4.41483C6.19736 4.61278 5.71988 4.92338 5.32505 5.32558C4.92349 5.71995 4.6127 6.19709 4.41431 6.7238C4.22005 7.22602 4.08581 7.8009 4.04738 8.64162C4.00948 9.4834 4 9.75136 4 11.8966C4 14.0418 4.00895 14.3098 4.04738 15.1521C4.08581 15.9928 4.21953 16.5672 4.41483 17.0694C4.61278 17.5958 4.92338 18.0733 5.32558 18.4682C5.71996 18.8697 6.1971 19.1805 6.7238 19.3789C7.22602 19.5737 7.80037 19.7074 8.6411 19.7458C9.4834 19.7843 9.75188 19.7932 11.8966 19.7932C14.0413 19.7932 14.3098 19.7843 15.1521 19.7458C15.9928 19.7074 16.5672 19.5737 17.0694 19.3784C17.5958 19.1804 18.0733 18.8698 18.4682 18.4676C18.8697 18.0733 19.1805 17.5961 19.3789 17.0694C19.5737 16.5672 19.7074 15.9928 19.7458 15.1521C19.7843 14.3098 19.7932 14.0413 19.7932 11.8966C19.7932 9.75188 19.7843 9.4834 19.7458 8.6411C19.7074 7.80037 19.5737 7.22602 19.3784 6.7238C19.1801 6.19687 18.8693 5.71952 18.4676 5.32505C18.0733 4.92349 17.5961 4.6127 17.0694 4.41431C16.5672 4.22005 15.9923 4.08581 15.1516 4.04738C14.3098 4.00948 14.0418 4 11.8966 4Z" fill="#32323C"/>
<path fill-rule="evenodd" clip-rule="evenodd" d="M12.2698 14.9042C11.9238 14.9042 11.5812 14.836 11.2615 14.7036C10.9418 14.5712 10.6513 14.3771 10.4067 14.1325C10.162 13.8878 9.96794 13.5973 9.83552 13.2777C9.70311 12.958 9.63496 12.6154 9.63496 12.2694C9.63496 11.9234 9.70311 11.5807 9.83552 11.2611C9.96794 10.9414 10.162 10.6509 10.4067 10.4063C10.6513 10.1616 10.9418 9.96751 11.2615 9.8351C11.5812 9.70268 11.9238 9.63453 12.2698 9.63453C12.9686 9.63453 13.6388 9.91213 14.1329 10.4063C14.627 10.9004 14.9046 11.5706 14.9046 12.2694C14.9046 12.9682 14.627 13.6383 14.1329 14.1325C13.6388 14.6266 12.9686 14.9042 12.2698 14.9042ZM12.2698 8.21051C11.1933 8.21051 10.1609 8.63814 9.39975 9.39932C8.63856 10.1605 8.21094 11.1929 8.21094 12.2694C8.21094 13.3458 8.63856 14.3782 9.39975 15.1394C10.1609 15.9006 11.1933 16.3282 12.2698 16.3282C13.3463 16.3282 14.3786 15.9006 15.1398 15.1394C15.901 14.3782 16.3286 13.3458 16.3286 12.2694C16.3286 11.1929 15.901 10.1605 15.1398 9.39932C14.3786 8.63814 13.3463 8.21051 12.2698 8.21051Z" fill="#EBEBEB"/>
<path d="M16.6769 7.57265C16.8569 7.39272 16.9579 7.14868 16.9579 6.89422C16.9579 6.63976 16.8569 6.39573 16.6769 6.2158C16.497 6.03587 16.253 5.93478 15.9985 5.93478C15.744 5.93478 15.5 6.03587 15.3201 6.2158C15.1401 6.39573 15.0391 6.63976 15.0391 6.89422C15.0391 7.14868 15.1401 7.39272 15.3201 7.57265C15.5 7.75257 15.744 7.85366 15.9985 7.85366C16.253 7.85366 16.497 7.75257 16.6769 7.57265Z" fill="#EBEBEB"/>
</svg>
