<svg width="24" height="24" viewBox="0 0 24 24" fill="none" xmlns="http://www.w3.org/2000/svg">
<circle cx="11.9319" cy="11.9319" r="11.9319" fill="#EBEBEB"/>
<path fill-rule="evenodd" clip-rule="evenodd" d="M11.9212 3.97235C7.5335 3.97235 3.97656 7.52929 3.97656 11.917C3.97656 13.4182 4.3937 14.8243 5.11865 16.023L4.41019 18.4318C4.23097 19.0411 4.79712 19.6073 5.4064 19.428L7.81519 18.7195C9.01393 19.4446 10.42 19.8616 11.9212 19.8616C16.3089 19.8616 19.8659 16.3047 19.8659 11.917C19.8659 7.52929 16.3089 3.97235 11.9212 3.97235ZM10.1243 13.7146C11.7311 15.3214 13.2654 15.5332 13.8072 15.5532C14.6312 15.5835 15.4335 14.9542 15.7463 14.2243C15.823 14.0455 15.8038 13.8305 15.6755 13.6659C15.2406 13.1091 14.652 12.7101 14.0769 12.313C13.8284 12.141 13.4867 12.1943 13.3037 12.4378L12.8264 13.1648C12.7734 13.2454 12.6682 13.2731 12.5844 13.2252C12.2615 13.0406 11.7906 12.7258 11.4518 12.387C11.1135 12.0486 10.8178 11.5991 10.6518 11.2969C10.6082 11.2175 10.6323 11.1194 10.705 11.0653L11.4387 10.5205C11.6575 10.3311 11.696 10.0094 11.5349 9.77375C11.1784 9.25212 10.763 8.58914 10.1619 8.15065C9.99767 8.03087 9.78998 8.01743 9.61849 8.09092C8.8877 8.40411 8.25534 9.2062 8.28572 10.0317C8.30566 10.5735 8.5175 12.1078 10.1243 13.7146Z" fill="#32323C"/>
</svg>
